<svg "0px" y="0px" viewBox="407 -351.8 1024 768" style="enable-background:new 407 -351.8 1024 768;">
<style type="text/css">
	.st0{fill:#F2F2F2;}
	.st1{fill:none;stroke:#000000;stroke-width:3;stroke-miterlimit:10;}
	.st2{fill:none;stroke:#CCCCCC;stroke-miterlimit:10;}
	.st3{fill:none;stroke:#FF1D25;stroke-miterlimit:10;}
	.st4{fill:#BF1A2B;}
	.st5{fill:#FFFFFF;}
	.st6{fill:none;stroke:#BF1A2B;stroke-width:3;stroke-linecap:round;stroke-miterlimit:10;}
	.st7{fill:#F3B244;}
	.st8{fill:none;stroke:#F3B244;stroke-width:3;stroke-linecap:round;stroke-miterlimit:10;}
	.st9{fill:#FFF100;}
	.st10{fill:none;stroke:#FFF100;stroke-width:3;stroke-miterlimit:10;}
	.st11{fill:#D1D72E;}
	.st12{fill:none;stroke:#D1D72E;stroke-width:3;stroke-linecap:round;stroke-miterlimit:10;}
</style>
<g id="bg">
	<rect x="407" y="-351.8" class="st0" width="1024" height="768"/>
</g>
<g id="å°logo">
	<g>
		<g>
			<path d="M469-308.6h0.3c0.7,0.6,1.5,2,2.3,4.4l4.4-0.4c1.5,0.4,2.2,1.1,2.2,1.9c-0.6,0-1.1-0.1-1.6-0.3c0,0.2-0.1,0.3-0.3,0.3
				c-0.1-0.3-0.2-0.4-0.3-0.4c-0.5,0.3-0.8,0.4-1,0.4c0-0.2-0.1-0.3-0.3-0.3v0.3c-0.3-0.2-0.6-0.3-0.9-0.3s-0.7,0.1-1,0.4
				c-0.2-0.1-0.3-0.1-0.5-0.1c0,0.1,0,0.1-0.1,0.1v-0.4h-0.3c-0.2,0-0.3,0.1-0.3,0.3v0.6c0,2,0.6,4.8,1.9,8.5h0.1
				c1.1-1.7,1.9-2.5,2.7-2.5c1,0.3,1.5,0.8,1.5,1.5h-0.1c-0.2,0.1-0.3,0.1-0.4,0.1v0.2l0.2,0.3c-1.2,0.8-2.2,2-2.8,3.7
				c0.4,0.7,1,2.4,1.8,5.3l0.3,0.1h0.3l0.7-2.8v-0.9c0-0.5-0.1-1.3-0.2-2.5c0.7,0.4,1.2,0.6,1.5,0.6c-0.6,2.2-0.9,3.5-0.9,3.8
				c0.1,0.5,0.1,0.8,0.1,0.9l-0.3,0.9l0.3,0.1c-0.2,1.1-0.3,2.2-0.3,3.4c-0.2,0-0.3,0-0.3,0.1c-1.1,0-2.3-2.8-3.7-8.4h-0.1
				c-1.1,0.9-1.6,1.7-1.6,2.3c-0.5,0-1-0.7-1.5-2.1c1.6-1.4,2.3-2.2,2.3-2.5c-1.2-3.4-1.8-5.3-1.8-5.9c0.1,0,0.2,0,0.2-0.1l-0.3,0.2
				H471c-0.5-3.3-0.9-5-1.2-5h-1c-0.2,0-0.3,0.1-0.3,0.4c-0.2,0-0.3-0.1-0.3-0.3c-3,0.4-4.6,0.8-4.6,1.3c-0.6,2.3-0.9,3.7-0.9,4.3
				h0.1c1.9-0.7,3.2-1.2,3.8-1.5c1,0,1.7,0.8,2.2,2.5c0,0.1-0.1,0.2-0.2,0.2c0,0.1,0.1,0.1,0.2,0.1l-0.5,2.8
				c0.1,0.2,0.2,0.4,0.2,0.6c-0.9,4-1.5,6-1.8,6.2h-0.4c-0.2,0-0.6-0.5-1.5-1.6c0.1-0.3,0.2-0.4,0.3-0.4c-0.1-0.3-0.2-0.4-0.3-0.4
				h-0.7l-0.1-1h0.1c0.3,0,0.7,0.1,1,0.4h0.9c0.7-3,1-5.5,1-7.5v-0.4l-0.1-0.3c-2.3,1.4-3.6,2.1-3.8,2.1h-0.7l-0.5,3.1
				c0.1,0.2,0.2,0.3,0.2,0.4h-0.2c0,0.1,0.1,0.1,0.2,0.1c-0.1,4-0.3,6-0.4,6c0.1,0.2,0.2,0.4,0.2,0.6h-0.6c0-0.4-0.5-0.9-1.5-1.5
				v-0.4c0-0.2,0.1-0.6,0.4-1.3v-1h0.2c-0.2-0.3-0.3-0.6-0.3-0.7c0.3-4.4,0.7-7.4,1.2-8.8c0.2-1.5,0.4-2.3,0.6-2.5
				c-0.9-0.5-1.3-0.9-1.3-1v-0.2c4.5-1.2,7.4-1.8,8.8-1.8v0.1c0,0.2,0,0.3,0.1,0.3c0.3-0.1,0.4-0.2,0.4-0.3L469-308.6z M477-309.8
				h0.1c1,1,1.7,2.3,2.1,3.7c-0.1,0-0.2,0-0.4,0.1c-0.7-1.1-1.4-2.3-2.1-3.7L477-309.8z"/>
			<path d="M492.8-300.8c1,0,1.5,0.4,1.5,1.2c-1,0.5-1.6,0.7-2.1,0.7c0,0.1,0.1,0.3,0.4,0.4l-0.1,0.7v3.4l-0.2,0.7
				c0.2,0,0.3,0.1,0.3,0.3v0.6h-0.4c0.1,0.4,0.1,0.7,0.1,1h0.7c0.2,0,0.8-0.2,1.9-0.7v0.7l0.7-0.2c0,1.1-1,1.8-3.1,2.3
				c-1.2,0.9-1.8,1.5-1.8,1.6c-0.5,0-1-0.3-1.8-0.9v-0.1c0-0.1,0-0.2,0.1-0.2c0-0.2-0.3-0.6-1-1.2c0.2-0.1,0.3-0.2,0.4-0.2l1.3,0.2
				c0.7-0.4,1.2-0.6,1.5-0.6l-0.1-0.3c0-0.1,0-0.1,0.1-0.1l-0.1-0.3c0-0.1,0-0.4,0.1-0.9c-0.1-0.2-0.1-0.3-0.1-0.4l0.1-0.3
				c-0.4-1.1-0.6-2.6-0.6-4.4v-0.6c-0.4,0-0.9,0.1-1.5,0.3c-0.2-0.1-0.3-0.2-0.4-0.2v0.2c-1.7-0.5-2.5-0.9-2.5-1v-0.2
				c0.2-0.2,0.3-0.4,0.3-0.6c0.3,0.1,0.4,0.2,0.4,0.3C490.2-300.3,492.1-300.8,492.8-300.8z M502-304.7c0.4,0.4,1,0.6,1.8,0.9v0.2
				c-0.4,1.8-0.6,2.8-0.6,3.1c0.1,0,0.2,0.1,0.2,0.2c0.9-0.3,1.9-0.5,3.1-0.5h0.1c1.3,0,1.9,0.6,1.9,1.8v1c0,2.4-0.7,5.2-2.2,8.4
				c-0.7,1.2-1.3,1.8-1.9,1.8l-1.5-2.2l0.2-0.9h0.3l0.4,0.3l0.3-0.1l0.9,0.1c1.1-2.5,1.6-4.9,1.6-7v-1.5l-0.4-0.6
				c-2.5,0.2-3.7,1-3.7,2.3c-1.4,4.6-2.9,7.9-4.4,10.1c-0.7,0.5-1,0.8-1,1h-0.4c0-0.6-0.2-1.1-0.7-1.3v-0.2c2.3-2.4,4-5.9,5.1-10.6
				c-1,0.6-2.3,1.1-3.8,1.5c-1.1-0.4-1.6-1-1.6-1.8l0.3-0.4c0.7,0.4,1.2,0.6,1.5,0.6c0.5-0.3,1.8-0.8,3.8-1.5
				c0.5-0.4,0.7-1.4,0.7-2.9c-0.1-0.2-0.1-0.3-0.1-0.4v-0.6h-0.2v-0.3C501.5-304.4,501.7-304.6,502-304.7z"/>
			<path d="M467.1-276c1.4,0.2,2.1,0.9,2.1,1.9c-1.9,3.9-2.8,5.9-2.9,6l0.2,0.3c-2.4,3.6-3.6,5.5-3.7,5.7c-0.3,0-0.7-0.8-1.2-2.5
				c1,0,2.1-1.7,3.1-5.1h-0.1c-1.7,0.9-2.6,1.3-2.9,1.3c-1.3-0.2-1.9-0.5-1.9-0.9v-0.3c0.7,0,2.4-0.7,5.1-2.2c1.1,0,1.8-0.8,2.1-2.5
				h-0.7c-0.1,0-0.8,0.5-1.9,1.5c-1.1-0.1-2-0.3-2.6-0.6v-0.4L467.1-276z M471.4-259.3h1.5c1.1,0.1,1.6,0.5,1.6,1
				c-0.8,0.6-1.2,1.1-1.2,1.6v0.4l1.8-0.2c1,0.1,1.8,0.2,2.3,0.2v0.1c-0.1,0.2-0.1,0.4-0.1,0.6l0.3,0.1c0-0.6,0.1-0.9,0.3-0.9
				c0.1,0.4,0.3,0.6,0.4,0.6v-0.3h0.4l-0.1,0.8c0.1,0,0.1,0,0.1,0.1l-0.9,0.4v-0.4h-0.3c0,0.4-1.9,0.8-5.7,1
				c-0.2-0.1-0.3-0.2-0.4-0.2c-2.7,0.6-4.4,1.1-5,1.5c-0.6,0-1.6-0.7-2.8-2.1v-0.2c0-0.2,0.1-0.3,0.3-0.3c0.5,0.3,0.9,0.4,1.2,0.4
				h0.3c0.4,0,1.2-0.1,2.3-0.3c-0.6-2.1-0.9-3.5-0.9-4.1h0.2c1.3,0.4,1.9,0.8,1.9,1.3c-0.1,1-0.2,1.6-0.2,1.8
				c0.2,0.4,0.4,0.7,0.6,0.7c1,0,1.7-0.9,2.1-2.8V-259.3z M473.1-266.3c1,0.4,1.6,0.8,1.9,1.2v0.6c0,0.8-0.3,1.5-1,1.9
				c0-0.1,0-0.2-0.1-0.2v0.7c0,0.2,0.1,0.3,0.4,0.3c-0.2,0.4-0.3,0.7-0.3,0.9h-1.2c-1,0-2.1,0.4-3.5,1.2h-0.1c-1.2,0-1.9-1.3-2.3-4
				c-0.1-1-0.3-1.7-0.6-1.9v-0.3l0.2-0.3c1.2,0,1.8,0.5,1.8,1.6C469.7-265.8,471.4-266.3,473.1-266.3z M472-269.6
				c0.6,0.2,0.9,0.4,1,0.7c0,0.6-1.5,0.9-4.6,1h-1.6v-0.3C468.4-268.8,470.2-269.3,472-269.6z M468.6-262.7v0.4l0.6-0.3
				c1,0.1,1.7,0.2,2.2,0.2c1.1-0.4,1.6-1.3,1.6-2.6h-0.6C471.3-265,470-264.2,468.6-262.7z M475.5-276c0.7,0.6,1,0.9,1,1v0.3
				c-1.4,0.4-3.2,0.7-5.6,0.9v0.1c0,0.1,0.5,0.6,1.6,1.5l3.1-0.7c0.9,0.3,1.3,0.6,1.3,1.2c-1.3,0.4-2.3,0.6-3.1,0.6
				c-0.2-0.1-0.3-0.1-0.4-0.1c0,1,1.2,2.3,3.7,3.9c1.5,0.6,2.2,1.3,2.2,2.1c-0.2,0-0.4,0.1-0.7,0.3c-2.2-0.7-4.1-2.3-5.7-4.8
				c-1.2-2.1-1.9-3.2-2.1-3.2c-0.4,0-0.6-0.2-0.6-0.7h-0.3l-0.3,0.1v-0.6C472-275.1,473.9-275.7,475.5-276z"/>
			<path d="M496-275.6c0.6,0.8,1.3,2.4,1.9,5l0.3,0.1c1.9-0.5,2.9-0.8,2.9-1l1,0.2h1.2c0.3,0.1,0.4,0.5,0.4,1.2
				c-1,0.8-2.3,1.2-4,1.2c-0.1-0.2-0.1-0.3-0.1-0.4h-0.3c-0.2,0-0.4,0.3-0.6,1l-1-0.1c-0.6,1.2-1.1,2.7-1.5,4.3
				c-0.1,0-0.1,0-0.1,0.1l0.3,0.6c-0.2,0.1-0.4,0.1-0.6,0.1l0.1,0.3c0,0.7-1.9,3.6-5.7,8.7c-1-0.3-2-0.7-2.9-1.2v-0.4
				c0-0.2,0.4-0.4,1.3-0.6c1.2-0.8,1.8-1.4,1.9-1.9c-0.2-0.3-0.3-0.6-0.3-0.9v-0.4c0.9-0.3,1.8-1.6,2.5-3.8c1.2-1.7,1.8-2.8,1.8-3.2
				h-0.1c-2.6,0.9-4.6,1.5-5.9,1.8c-2.1-0.1-3.2-0.4-3.4-1v-0.9l0.6-0.2l0.6,0.3l9.4-3.5c0.2-0.8,0.3-1.6,0.3-2.3c0-1-0.3-2-0.9-2.8
				C495.4-275.5,495.7-275.6,496-275.6z M497.7-264.4c0.9,0,2.1,1.1,3.4,3.4c0,0.3,1,1.3,2.9,3.1c0.8,1.1,1.7,1.9,2.8,2.2
				c1.6,1,2.5,1.9,2.8,2.7h-0.2c-3.7-1.1-6.4-2.4-8.1-4c-0.2-1-1.6-3.1-4.1-6.3l-0.4-0.7L497.7-264.4z"/>
			<path d="M521.9-274.3L521.9-274.3c1.1,0.5,2,1.6,2.6,3.2c-0.2,0-0.4,0.8-0.7,2.3c-0.1,0-0.1,0.1-0.1,0.2c0,0.3,0,0.4,0.1,0.4
				l-0.6,2.8v0.2c0.8,0,2,0.9,3.7,2.6c2.7,1.5,5.3,3.3,7.9,5.4c1.6,1.2,2.5,1.8,2.8,1.8v0.1c0,0.2-0.1,0.3-0.3,0.3H537
				c-1.3,0-4.7-1.9-10.1-5.7c0-0.2-0.6-0.8-1.9-1.9l-2.1-2.2c-0.5,0-1.2,1.4-2.1,4.1c-0.7,0.9-1.2,1.9-1.5,2.9
				c-1.6,1.7-3.2,2.8-4.8,3.2c-0.8,0-1.3-0.7-1.6-2c0.2-0.3,0.8-0.7,1.8-1.2l0.3,0.2c0-0.3,0.3-0.6,0.9-0.7l0.6-1l-0.1-0.3
				c0.2,0,0.8-0.6,1.8-1.8c-0.1,0-0.2-0.1-0.2-0.2l0.6-0.6l-0.1-0.3v-0.3h0.3v-0.3l-0.2-0.3c0.2,0,0.6-0.7,1.2-2.2
				c1.1-2.7,1.9-4.9,2.3-6.8c0.1-0.5,0.2-1,0.2-1.5c-0.2,0-0.3-0.1-0.3-0.3L521.9-274.3L521.9-274.3z"/>
		</g>
		<g>
			<path d="M467.7-239.3c0.3,0.6,0.4,1.3,0.2,1.9c-0.3,1-1.6,2.2-4,3.7c-0.1-0.3,0-0.6,0.4-1.1c0-0.1,0.4-0.7,1.2-1.9
				c0-0.2,0.1-0.4,0.1-0.5c0-0.4,0-0.7-0.2-1.1c-0.2-0.4-0.6-0.4-1.1-0.1c-0.4,0-0.7,0.2-0.9,0.6c-0.2,0.3-0.3,0.8-0.3,1.3
				c-0.1,2.6,0.1,5.2,0.8,7.7c0,0.2,0,0.3-0.1,0.5c-0.1,0.1-0.2,0.3-0.4,0.3c-0.4,0.2-0.8,0.2-1.1-0.1c-0.4-0.3-0.7-1-0.8-2.1
				c-0.2-1.8-0.3-3.1-0.4-4.1c-0.1-1.1-0.1-1.9,0-2.6c0.1-0.9,0.4-1.7,1-2.2c0.5-0.5,1.1-0.8,1.9-1c0.6-0.1,1.3-0.2,2.3-0.1
				C466.9-240.2,467.4-239.9,467.7-239.3z"/>
			<path d="M469.6-238.5c0.5-0.7,1-1.2,1.8-1.4c0.8-0.3,1.6-0.2,2.4,0.2c0.4,0.2,0.7,0.4,0.9,0.7c0.2,0.3,0.3,0.6,0.3,1
				c-1,1.5-2.3,2.7-4,3.6c0.2,0.4,0.6,0.7,1.1,0.8c0.5,0.2,1,0.2,1.5,0c0.8-0.2,1.8-0.7,2.9-1.5c-0.2,1.1-0.6,1.8-1.1,2.1
				c-0.9,0.7-2,1-3.1,1c-1,0-1.9-0.5-2.6-1.5c-0.6-0.9-0.9-1.8-0.8-2.9C469-237.2,469.2-237.9,469.6-238.5z M473.1-237.5
				c0.2-0.3,0.1-0.6-0.1-1c-0.2-0.3-0.6-0.5-1-0.5c-0.6,0.7-0.9,1.5-0.9,2.4c0.4,0,0.7-0.1,1-0.3c0.3-0.2,0.5-0.4,0.7-0.7
				L473.1-237.5z"/>
			<path d="M479.7-238.1c-0.4,0.5-0.6,1-0.6,1.6c0,0.3,0.1,1.5,0.4,3.5c0.1,0.4-0.1,0.6-0.5,0.8c-0.4,0.1-0.8,0.1-1-0.2
				c-0.4-0.4-0.5-1.2-0.5-2.3c0-0.4,0-0.9,0.1-1.7c0-0.8,0.1-1.3,0.1-1.7c0-0.3,0.1-0.6,0.3-0.9s0.4-0.4,0.6-0.2
				c0.2,0.1,0.5,0.1,0.8,0c0.1,0,0.2-0.1,0.4-0.2c0.2-0.1,0.3-0.2,0.4-0.2c0.3-0.1,0.6-0.1,0.8,0.1c0.3,0.2,0.4,0.4,0.2,0.6
				C480.6-238.9,480.1-238.6,479.7-238.1z"/>
			<path d="M483.6-240.5c0,0,0.2,0,0.6-0.1c0.3-0.1,0.6,0,0.9,0.1c0.3,0.1,0.5,0.4,0.5,0.6c-0.5,0.2-1,0.4-1.4,0.8
				c-0.4,0.3-0.8,0.7-1,1.2c-0.2,0.3-0.2,0.6-0.1,0.8c0.1,0.1,0.2,0.3,0.4,0.4c0.7,0.5,1.3,0.9,1.7,1.2c0.2,0.2,0.4,0.2,0.5,0.2
				c0.1,0,0.3,0,0.4-0.1c0.1-0.1,0.2-0.2,0.4-0.3c0.2-0.2,0.3-0.3,0.4-0.3c0.1-0.1,0.3-0.1,0.4-0.1c0.1,0.2,0,0.5-0.3,0.7l-0.8,0.5
				c-0.2,0.2-0.5,0.4-0.8,0.8c-0.3,0.4-0.6,0.7-0.7,0.8c-0.4,0.4-0.9,0.7-1.5,0.8c-0.3,0.1-0.5,0.1-0.8,0c-0.3-0.1-0.5-0.3-0.5-0.5
				c0.8-0.2,1.5-0.6,2.2-1.1c0.2-0.1,0.3-0.3,0.3-0.6c0-0.2-0.1-0.4-0.2-0.6c-0.2-0.2-0.6-0.5-1.1-0.7c-0.6-0.2-0.9-0.5-1.1-0.7
				s-0.3-0.5-0.3-0.8s0-0.6,0.1-0.9c0.2-0.4,0.5-0.9,1-1.4C483.4-240.3,483.6-240.5,483.6-240.5z"/>
			<path d="M488.5-242.8c-0.2,0-0.5,0.1-0.8,0.3c-0.3,0.2-0.6,0.2-0.8,0.2c-0.2,0-0.3-0.1-0.3-0.3c-0.1-0.1-0.1-0.3,0-0.5
				c0.1-0.4,0.3-0.6,0.6-0.7c0.5-0.1,1.1,0.1,1.9,0.6C488.9-243.1,488.7-242.9,488.5-242.8L488.5-242.8z M489-232.5
				c-0.2,0.3-0.5,0.4-0.9,0.3c-0.2,0-0.3-0.1-0.4-0.2c-0.1-0.1-0.2-0.2-0.2-0.4c0-0.5-0.1-1.3-0.1-2.3c-0.1-1-0.1-1.8-0.1-2.3
				c0-0.7,0.1-1.2,0.3-1.5c0.2-0.2,0.4-0.3,0.7-0.2c0.3,0,0.5,0.2,0.5,0.4c0.1,0.4,0.2,1.1,0.3,2.1c0.1,0.9,0.2,1.6,0.3,2.1
				C489.4-233.6,489.3-232.9,489-232.5z"/>
			<path d="M492.2-240.5c0,0,0.2,0,0.6-0.1c0.3-0.1,0.6,0,0.9,0.1c0.3,0.1,0.5,0.4,0.5,0.6c-0.5,0.2-1,0.4-1.4,0.8
				c-0.4,0.3-0.8,0.7-1,1.2c-0.2,0.3-0.2,0.6-0.1,0.8c0.1,0.1,0.2,0.3,0.4,0.4c0.7,0.5,1.3,0.9,1.7,1.2c0.2,0.2,0.4,0.2,0.5,0.2
				c0.1,0,0.3,0,0.4-0.1c0.1-0.1,0.2-0.2,0.4-0.3c0.2-0.2,0.3-0.3,0.4-0.3c0.1-0.1,0.3-0.1,0.4-0.1c0.1,0.2,0,0.5-0.3,0.7l-0.8,0.5
				c-0.2,0.2-0.5,0.4-0.8,0.8c-0.3,0.4-0.6,0.7-0.7,0.8c-0.4,0.4-0.9,0.7-1.5,0.8c-0.3,0.1-0.5,0.1-0.8,0c-0.3-0.1-0.5-0.3-0.5-0.5
				c0.8-0.2,1.5-0.6,2.2-1.1c0.2-0.1,0.3-0.3,0.3-0.6c0-0.2-0.1-0.4-0.2-0.6c-0.2-0.2-0.6-0.5-1.1-0.7c-0.6-0.2-0.9-0.5-1.1-0.7
				c-0.2-0.2-0.3-0.5-0.3-0.8s0-0.6,0.1-0.9c0.2-0.4,0.5-0.9,1-1.4C491.9-240.3,492.2-240.5,492.2-240.5z"/>
			<path d="M498.4-237c-0.1,1-0.1,1.8,0,2.3c0.1,0.9,0.4,1.6,0.8,2.1c0.3-0.2,0.6-0.4,1-0.4c0.4-0.1,0.7,0,1.1,0.1
				c-0.6,0.5-1.2,0.9-1.8,1c-0.4,0-0.7,0-1.1-0.1c-0.4-0.1-0.7-0.3-0.9-0.6c-0.5-0.5-0.7-1.3-0.8-2.5c0-0.6,0-1.1,0-1.7
				c0-0.4,0-0.7,0-0.9c-0.1-0.3-0.2-0.6-0.4-0.8c0,0-0.2-0.1-0.8-0.3c-0.2-0.1-0.3-0.1-0.4-0.3c-0.1-0.1-0.2-0.3-0.1-0.4
				c0.1-0.2,0.2-0.3,0.4-0.4c0.1-0.1,0.3-0.1,0.6-0.2c0.3,0,0.5-0.1,0.6-0.2c0.2-0.1,0.3-0.3,0.3-0.5s0-0.4,0-0.7s0-0.6,0-0.7
				c0-0.5,0-0.8,0.1-1c0.1-0.2,0.2-0.3,0.3-0.4c0.2-0.1,0.3-0.2,0.5-0.1c0.2,0,0.4,0.2,0.6,0.4c0.1,0.2,0.2,0.5,0.2,0.7
				c0,0.1,0,0.4-0.1,0.7c0,0.3,0,0.5,0,0.7c0,0.3,0.2,0.5,0.4,0.7c0.2,0.2,0.4,0.3,0.6,0.2c0.2-0.1,0.4-0.1,0.6,0
				c0.2,0.1,0.4,0.2,0.5,0.3c-0.2,0.3-0.5,0.6-1.1,1c-0.6,0.4-0.9,0.7-1.1,1.1C498.5-237.7,498.4-237.4,498.4-237z"/>
			<path d="M502.5-238.5c0.5-0.7,1-1.2,1.8-1.4c0.8-0.3,1.6-0.2,2.4,0.2c0.4,0.2,0.7,0.4,0.9,0.7c0.2,0.3,0.3,0.6,0.3,1
				c-1,1.5-2.3,2.7-4,3.6c0.2,0.4,0.6,0.7,1.1,0.8c0.5,0.2,1,0.2,1.5,0c0.8-0.2,1.8-0.7,2.9-1.5c-0.2,1.1-0.6,1.8-1.1,2.1
				c-0.9,0.7-2,1-3.1,1c-1,0-1.9-0.5-2.6-1.5c-0.6-0.9-0.9-1.8-0.8-2.9C501.9-237.2,502.1-237.9,502.5-238.5z M506.1-237.5
				c0.2-0.3,0.1-0.6-0.1-1c-0.2-0.3-0.6-0.5-1-0.5c-0.6,0.7-0.9,1.5-0.9,2.4c0.4,0,0.7-0.1,1-0.3c0.3-0.2,0.5-0.4,0.7-0.7
				L506.1-237.5z"/>
			<path d="M511.6-233.5c-0.2,0-0.3-0.1-0.4-0.2c-0.1-0.2-0.2-0.4-0.3-0.8c-0.2-1.4-0.4-2.8-0.4-4.2c0.2-0.1,0.4-0.1,0.5,0.1
				c0.2,0.2,0.3,0.4,0.3,0.6c0,0.4,0,0.6,0,0.7c0.1,0.3,0.2,0.4,0.3,0.5c0.4-1,0.8-1.7,1.5-1.9c0.6-0.3,1.2-0.2,1.8,0.2
				c0.6,0.4,1,0.9,1.1,1.6c0.1,0.6,0.1,1.3-0.2,1.9c-0.2,0.6-0.6,1.2-1.1,1.7c-0.3-0.4-0.5-0.9-0.5-1.8c0-1-0.1-1.6-0.2-1.9
				c-0.1-0.2-0.2-0.4-0.4-0.5c-0.2-0.1-0.4-0.2-0.6-0.2s-0.5,0.2-0.7,0.6c-0.6,1.1-0.8,2.2-0.6,3.4
				C511.9-233.5,511.8-233.5,511.6-233.5z"/>
			<path d="M520.2-232.3c-0.9-0.2-1.5-0.8-2-1.7s-0.5-1.8-0.3-2.7c0.3-0.9,0.9-1.8,1.7-2.5c0.9-0.8,1.8-1.2,2.6-1.2
				c0.2,0.4,0.2,0.8-0.1,1.2c0,0-0.4,0.5-1.2,1.3c-0.5,0.6-0.9,1.1-1,1.5c-0.2,0.6,0,1.3,0.5,2c0.2,0.3,0.6,0.5,1.1,0.5
				c0.4,0,0.9-0.1,1.3-0.3c0,0,0.4-0.2,1.1-0.7c0.4-0.3,0.8-0.5,1.2-0.5c0.2,0.3,0.2,0.6,0,1c-0.2,0.3-0.5,0.6-0.9,0.9
				C522.6-232.4,521.3-232,520.2-232.3z"/>
			<path d="M526.5-238.5c0.5-0.7,1-1.2,1.8-1.4c0.8-0.3,1.6-0.2,2.4,0.2c0.4,0.2,0.7,0.4,0.9,0.7c0.2,0.3,0.3,0.6,0.3,1
				c-1,1.5-2.3,2.7-4,3.6c0.2,0.4,0.6,0.7,1.1,0.8c0.5,0.2,1,0.2,1.5,0c0.8-0.2,1.8-0.7,2.9-1.5c-0.2,1.1-0.6,1.8-1.1,2.1
				c-0.9,0.7-2,1-3.1,1c-1,0-1.9-0.5-2.6-1.5c-0.6-0.9-0.9-1.8-0.8-2.9C525.9-237.2,526.1-237.9,526.5-238.5z M530.1-237.5
				c0.2-0.3,0.1-0.6-0.1-1c-0.2-0.3-0.6-0.5-1-0.5c-0.6,0.7-0.9,1.5-0.9,2.4c0.4,0,0.7-0.1,1-0.3c0.3-0.2,0.5-0.4,0.7-0.7
				L530.1-237.5z"/>
			<path d="M467.9-214.1c0.5,0.5,0.8,1.2,0.9,2.1c0,0,0,0.8,0.1,2.3c0,0.8,0.3,1.4,0.7,1.7c0.2,0.1,0.2,0.3,0.2,0.6
				s-0.1,0.5-0.3,0.7c-0.3,0.3-0.7,0.3-1.2,0.1c-0.6-0.2-1-0.7-1.3-1.6c0,0.1-0.2-0.8-0.5-2.5c-0.1-0.6-0.3-1.1-0.7-1.4
				c-0.3-0.3-0.7-0.4-1.2-0.2c-0.3,0.1-0.5,0.4-0.7,1c-0.1,0.4-0.1,0.9-0.1,1.4c0.1,0.7,0.1,1.1,0.1,1.4c0,0.5-0.1,0.9-0.4,1.2
				s-0.6,0.5-1,0.4s-0.7-0.3-0.9-0.7c-0.3-0.5-0.4-1.4-0.3-2.7c0.2-4.8,0.7-8.3,1.6-10.5c0.4-0.1,0.6,0.2,0.8,0.8
				c0.1,0.5,0.1,1.1,0,1.7c-0.2,1.3-0.1,2.4,0.3,3.1c0.2,0.5,0.5,0.8,0.9,1s0.8,0.2,1.2,0C466.9-214.8,467.4-214.7,467.9-214.1z
				 M462.6-213.3c-0.1,0.3-0.1,0.6-0.1,0.9c0,0.4-0.1,0.7-0.1,1.1c0,0.3,0,0.7,0,0.9c0,0.3,0,0.4,0.1,0.5c0,0.1,0.1,0.1,0.2,0
				c0.1-0.1,0.1-0.3,0.2-0.5c0.1-0.3,0.1-0.6,0.1-0.9c0-0.4,0.1-0.7,0.1-1s0-0.7,0-0.9c0-0.3,0-0.4-0.1-0.5c0-0.1-0.1-0.1-0.2,0
				C462.7-213.7,462.7-213.5,462.6-213.3z"/>
			<path d="M470-212.5c0-0.4,0.1-0.7,0.2-0.9c0.1-0.1,0.2-0.2,0.3-0.3c0.2-0.1,0.3,0,0.4,0c0.1,0.1,0.2,0.3,0.3,0.6
				c0.4,1.2,0.7,2.2,0.9,3.1c0,0.1,0.1,0.3,0.3,0.3c0.1,0.1,0.3,0.1,0.4,0c0.2-0.1,0.4-0.3,0.7-0.6c0.7-1,1.3-2,1.6-3.2
				c0.1-0.5,0.3-0.8,0.6-0.9c0.2-0.1,0.4,0,0.6,0.3c0.1,0.2,0.3,0.4,0.3,0.7c0.5,1.9,1,3.9,1.4,5.8c0.1,0.4,0.1,0.6-0.1,0.8
				c-0.1,0.1-0.2,0.2-0.4,0.2c-0.1,0-0.3,0-0.4-0.1c-0.2-0.1-0.3-0.4-0.5-0.7s-0.4-0.8-0.8-1.5c-0.2-0.7-0.4-1.3-0.5-1.6
				c-0.5,0.8-0.9,1.3-1.2,1.7c-0.4,0.5-0.9,0.8-1.4,0.8c-0.4,0-0.8-0.1-1.2-0.5c-0.3-0.3-0.6-0.6-0.8-1.1
				C470.2-210.4,470-211.4,470-212.5z"/>
			<path d="M479.4-208.5c-0.2,0-0.3-0.1-0.4-0.2c-0.1-0.2-0.2-0.4-0.3-0.8c-0.2-1.4-0.4-2.8-0.4-4.2c0.2-0.1,0.4-0.1,0.5,0.1
				c0.2,0.2,0.3,0.4,0.3,0.6c0,0.4,0,0.6,0,0.7c0.1,0.3,0.2,0.4,0.3,0.5c0.4-1,0.8-1.7,1.5-1.9c0.6-0.3,1.2-0.2,1.8,0.2
				c0.6,0.4,1,0.9,1.1,1.6c0.1,0.6,0.1,1.3-0.2,1.9c-0.2,0.6-0.6,1.2-1.1,1.7c-0.3-0.4-0.5-0.9-0.5-1.8c0-1-0.1-1.6-0.2-1.9
				c-0.1-0.2-0.2-0.4-0.4-0.5c-0.2-0.1-0.4-0.2-0.6-0.2c-0.2,0-0.5,0.2-0.7,0.6c-0.6,1.1-0.8,2.2-0.6,3.4
				C479.7-208.5,479.6-208.5,479.4-208.5z"/>
			<path d="M488.6-212c-0.1,1-0.1,1.8,0,2.3c0.1,0.9,0.4,1.6,0.8,2.1c0.3-0.2,0.6-0.4,1-0.4c0.4-0.1,0.7,0,1.1,0.1
				c-0.6,0.5-1.2,0.9-1.8,1c-0.4,0-0.7,0-1.1-0.1s-0.7-0.3-0.9-0.6c-0.5-0.5-0.7-1.3-0.8-2.5c0-0.6,0-1.1,0-1.7c0-0.4,0-0.7,0-0.9
				c-0.1-0.3-0.2-0.6-0.4-0.8c0,0-0.2-0.1-0.8-0.3c-0.2-0.1-0.3-0.1-0.4-0.3c-0.1-0.1-0.2-0.3-0.1-0.4c0.1-0.2,0.2-0.3,0.4-0.4
				c0.1-0.1,0.3-0.1,0.6-0.2c0.3,0,0.5-0.1,0.6-0.2c0.2-0.1,0.3-0.3,0.3-0.5s0-0.4,0-0.7s0-0.6,0-0.7c0-0.5,0-0.8,0.1-1
				s0.2-0.3,0.3-0.4c0.2-0.1,0.3-0.2,0.5-0.1c0.2,0,0.4,0.2,0.6,0.4c0.1,0.2,0.2,0.5,0.2,0.7c0,0.1,0,0.4-0.1,0.7c0,0.3,0,0.5,0,0.7
				c0,0.3,0.2,0.5,0.4,0.7c0.2,0.2,0.4,0.3,0.6,0.2c0.2-0.1,0.4-0.1,0.6,0s0.4,0.2,0.5,0.3c-0.2,0.3-0.5,0.6-1.1,1s-0.9,0.7-1.1,1.1
				C488.7-212.7,488.6-212.4,488.6-212z"/>
			<path d="M493.6-217.8c-0.2,0-0.5,0.1-0.8,0.3c-0.3,0.2-0.6,0.2-0.8,0.2s-0.3-0.1-0.3-0.3c-0.1-0.1-0.1-0.3,0-0.5
				c0.1-0.4,0.3-0.6,0.6-0.7c0.5-0.1,1.1,0.1,1.9,0.6C494-218.1,493.8-217.9,493.6-217.8L493.6-217.8z M494.1-207.5
				c-0.2,0.3-0.5,0.4-0.9,0.3c-0.2,0-0.3-0.1-0.4-0.2c-0.1-0.1-0.2-0.2-0.2-0.4c0-0.5-0.1-1.3-0.1-2.3c-0.1-1-0.1-1.8-0.1-2.3
				c0-0.7,0.1-1.2,0.3-1.5c0.2-0.2,0.4-0.3,0.7-0.2c0.3,0,0.5,0.2,0.5,0.4c0.1,0.4,0.2,1.1,0.3,2.1c0.1,0.9,0.2,1.6,0.3,2.1
				C494.5-208.6,494.4-207.9,494.1-207.5z"/>
			<path d="M496.6-208.5c-0.2,0-0.3-0.1-0.4-0.2c-0.1-0.2-0.2-0.4-0.3-0.8c-0.2-1.4-0.4-2.8-0.4-4.2c0.2-0.1,0.4-0.1,0.5,0.1
				c0.2,0.2,0.3,0.4,0.3,0.6c0,0.4,0,0.6,0,0.7c0.1,0.3,0.2,0.4,0.3,0.5c0.4-1,0.8-1.7,1.5-1.9c0.6-0.3,1.2-0.2,1.8,0.2
				s1,0.9,1.1,1.6c0.1,0.6,0.1,1.3-0.2,1.9c-0.2,0.6-0.6,1.2-1.1,1.7c-0.3-0.4-0.5-0.9-0.5-1.8c0-1-0.1-1.6-0.2-1.9
				c-0.1-0.2-0.2-0.4-0.4-0.5c-0.2-0.1-0.4-0.2-0.6-0.2c-0.2,0-0.5,0.2-0.7,0.6c-0.6,1.1-0.8,2.2-0.6,3.4
				C496.9-208.5,496.8-208.5,496.6-208.5z"/>
			<path d="M510-205.9c0,1,0,1.8-0.1,2.4c-0.2,0.9-0.6,1.5-1.1,1.9c-0.3,0.2-0.8,0.4-1.3,0.5c-0.6,0.1-1.2,0.2-1.7,0
				c-0.6-0.1-1-0.4-1.3-0.9c-0.4-0.7-0.2-1.7,0.5-2.9c0.6-1,1.4-1.9,2.3-2.7c1-0.9,1.3-1.6,1-2.1l-1.4,1.2c-0.9,0.7-1.6,1.1-2.2,1.1
				c-0.4,0-0.8-0.1-1.2-0.4c-0.3-0.3-0.6-0.6-0.8-1c-0.3-0.6-0.4-1.5-0.3-2.5c0.1-1.2,0.4-2.3,0.9-3c0.3-0.5,0.7-0.9,1.1-1.2
				c0.5-0.3,1-0.5,1.5-0.5s1,0.1,1.5,0.4c0.5,0.3,0.7,0.7,0.8,1.3c0,0.2,0,0.4-0.1,0.6c-0.1,0.2-0.2,0.4-0.4,0.5s-0.4,0.1-0.6,0
				s-0.3-0.3-0.2-0.5c0.1-0.3,0-0.6-0.3-0.9c-0.3-0.3-0.7-0.3-1-0.2c-0.6,0.2-1.1,0.8-1.4,1.7c-0.5,1.3-0.5,2.6-0.2,3.9
				c0.1,0.3,0.2,0.5,0.4,0.6c0.1,0.1,0.3,0.1,0.5,0c0.8-0.2,1.4-0.5,2.1-1.1c0.6-0.6,1-1.2,1.3-1.9c0.2-0.4,0.3-0.8,0.4-1
				c0.2-0.3,0.5-0.5,0.8-0.4c0.3,0.1,0.4,0.2,0.5,0.6c0,0.2,0.1,0.5,0.1,0.9c0,0.3,0.1,0.6,0.3,0.8c0.2,0.3,0.5,0.3,0.7,0.1
				c0.8-0.7,1.5-1.1,2-1.4c0.8-0.4,1.6-0.5,2.2-0.3c-0.4,0.2-1.1,0.6-1.9,1.1c-0.8,0.5-1.5,0.9-1.9,1.1
				C510.4-209.4,509.9-208,510-205.9z M506.7-204.8c-0.3,0.6-0.6,1-0.8,1.3c-0.2,0.3-0.3,0.5-0.3,0.7c0,0.3,0,0.5,0.3,0.8
				c0.5,0,0.9-0.1,1.3-0.4c0.4-0.3,0.7-0.7,0.9-1.2c0.2-0.6,0.3-1.6,0.2-2.8c-0.1-0.1-0.2-0.2-0.4-0.1c-0.2,0.1-0.3,0.2-0.4,0.4
				C507.3-205.9,507-205.4,506.7-204.8z"/>
		</g>
		<rect x="449.5" y="-320.3" class="st1" width="126" height="127"/>
	</g>
</g>
<g id="menu">
	<line class="st2" x1="888.5" y1="178" x2="888.3" y2="177.5"/>
	<line class="st2" x1="888" y1="16.7" x2="888" y2="16.7"/>
	<line class="st3" x1="1054.5" y1="472.2" x2="1054.5" y2="427.2"/>
	<line class="st3" x1="888.5" y1="17.2" x2="888.5" y2="16.2"/>
	<g id="info">
		<g>
			<polyline class="st2" points="558.5,254.5 558.3,254 558.5,253.9 			"/>
			<g>
				<g>
					<defs>
						<path id="SVGID_1_" d="M723,207.5v121.4c-4,4-8.7,8.1-10.8,11.5c-6.4,10.4-15.9,33.7-17.5,39.3s-8.7,32.8-7.9,36.8L640,455.9
							l-82-201.4V254L723,207.5z"/>
					</defs>
					<clipPath id="SVGID_2_">
						<use xlink:href="#SVGID_1_"  style="overflow:visible;"/>
					</clipPath>
				</g>
			</g>
			<g>
				<g>
					<defs>
						<polygon id="SVGID_3_" points="723,20 723,85.8 694,83.1 694,166.4 559.4,152.5 577.2,23.3 						"/>
					</defs>
					<clipPath id="SVGID_4_">
						<use xlink:href="#SVGID_3_"  style="overflow:visible;"/>
					</clipPath>
				</g>
			</g>
		</g>
		<g>
			<g>
				<rect x="445" y="-72.8" class="st4" width="130" height="50"/>
				<g>
					<path class="st5" d="M466.1-62.6h0.3c1.3,0.4,1.9,2,1.9,4.7v0.5h0.2c1-0.9,1.7-1.7,2.1-2.4c-0.2-0.4-0.3-0.6-0.5-0.6l-0.3,0.2
						v-0.2c0-0.2,0.3-0.4,1-0.5c1.3,0,1.9,0.5,1.9,1.4h0.2c0,0.9-0.9,1.9-2.8,2.9l-1.1,0.3v0.2c1.5,0.3,2.8,1,3.9,2.1v0.7l-0.3,0.5
						c-0.7-0.1-1.3-0.3-1.8-0.6l-0.3,0.2h-0.2c0-0.4-0.5-0.6-1.6-0.8c-0.4-0.2-0.6-0.6-0.6-1h-0.2c-0.5,0.9-1.1,1.6-1.8,2.3
						c-0.6,0-1.1-0.3-1.6-0.8l-0.3,0.2c0.2,0.4,0.3,0.7,0.3,1v0.3c-0.4,0-0.8,0.1-1.1,0.3c-2-0.4-3.1-0.9-3.1-1.3h-0.2
						c0,0.2-0.3,0.7-0.8,1.4c0.5,0.4,0.8,0.7,0.8,1c3.1-1.2,6.8-1.8,11.2-1.8v-0.4l0.3,0.2h0.2c0.1,0,0.2,0,0.2-0.2l0.3,0.2l0.7-0.2
						c1.7,0.3,2.6,0.8,2.6,1.6c0,1.2-1.6,2.4-4.7,3.4h-0.7c-0.2,0-0.3-0.2-0.3-0.5h-0.6v0.2c0.5,0,0.8,0.3,0.8,1v0.5
						c0,0.7-0.8,1.6-2.4,2.6c-0.8,1-1.3,1.4-1.6,1.4v-0.2l-0.3,0.2h-0.2l-0.8-1.1c0.2-0.8,0.9-1.7,2.3-2.7v-0.4
						c-0.2,0-0.3-0.1-0.3-0.2l-0.8,0.2h-0.3l-0.8-0.2c0,0.1-0.1,0.2-0.2,0.2c0-0.2-0.2-0.3-0.5-0.5h-0.7c0,0.1-0.1,0.3-0.2,0.5
						c0.3,0,0.7,1.1,1.1,3.4c-0.1,0.2-0.2,0.4-0.2,0.7l-0.6-0.3v0.3c-1.6-1.2-2.4-3.1-2.4-5.5h0.2l0.3,0.2c0.2-0.1,0.4-0.2,0.5-0.2
						l-0.2,0.3c0.4,0,0.8,0.2,1.3,0.5c1.2-0.9,2.3-1.4,3.6-1.4c1.2,0.3,1.8,0.5,1.9,0.6c1.7-0.6,2.8-1.3,3.4-2.1h-0.3l-8.4,0.8v-0.2
						l-1.9,0.5l-1-0.2v0.7c-0.2,2.7-0.3,4.1-0.3,4.2h-0.2c-1.2,0-1.8-1.3-1.8-3.9v-0.8l0.2-1.6c-0.9,0.9-1.7,1.3-2.4,1.3h-1.3V-50
						h-1v-0.3c1.1,0,2.5-1.2,4.4-3.7c0.3-0.9,0.6-1.9,0.8-3.1l-0.8-3.6l0.2-0.3l-0.3-1.1H458c0.2,0.2,0.8,0.5,1.8,1
						c0.9,1.4,1.3,3.1,1.3,5.2h0.2c0-0.2,0.2-0.9,0.6-2.1v-0.3c0-0.2-0.4-0.6-1.1-1.1c2.3,0,3.4,0.8,3.4,2.3
						c0.6-0.2,1.1-0.4,1.4-0.8h0.2v0.3c0.2,0,0.3-0.1,0.3-0.3V-59c0-0.4,0.1-0.9,0.2-1.5c-0.3-0.9-0.5-1.5-0.5-1.8L466.1-62.6z
						 M454.9-57.9h0.2c1.5,0.6,2.3,1.3,2.3,2.1v0.3c-0.5,0-0.8,0.1-1,0.2c-0.7,0-1.3-0.8-1.8-2.4L454.9-57.9z M461.2-42.4
						c0,0.2,0.4,0.6,1.3,1.1c0,0.2,0,0.3,0.2,0.3l9.1-1.5c1.6,0,2.4,0.4,2.4,1.3c-1,2.7-1.8,4-2.4,4c-0.8,0.8-1.4,1.7-1.6,2.7
						c-1.2,0.4-1.9,0.7-2.1,0.7l0,0c-0.5,0.3-0.9,0.5-1.1,0.5c-1.5,0-2.3-0.3-2.3-1c-0.2,0-0.3-0.1-0.3-0.2c0.3-1.2,0.7-1.8,1.1-1.8
						v-0.2h0.3v0.5c1.7,0,2.8-0.4,3.2-1.1c0.8-1,1.4-2,1.8-2.9h-0.2c-3.2,0.9-5.5,1.3-6.8,1.3h-0.5c0,0.3,0.3,1.4,1,3.4l-0.3,0.5
						l-0.3-0.2h-0.2v0.3c-1.6-1-2.4-2.8-2.4-5.3v-1.4l-0.2-0.8L461.2-42.4z M463-55.5l-0.8,1.1c0,0.2,0.2,0.3,0.3,0.3h0.2
						c0-0.3,0.1-0.5,0.3-0.5c0.5,0.4,0.7,0.6,0.8,0.6h0.5c0.9-0.5,1.3-1,1.3-1.6h-0.2l-0.8,0.2v-0.2l-0.3,0.2h-0.5L463-55.5z"/>
					<path class="st5" d="M491.6-60.4c0.8,0,1.4,0.8,1.9,2.3c0.1,0,0.6-0.1,1.5-0.2c0,0.1,0.1,0.3,0.2,0.5h-0.3l0.9,0.6v0.2
						c0,0.3-0.7,0.5-2.1,0.6l-0.1,0.3c0.2,2.7,0.3,4.2,0.3,4.7l-0.1,0.6l0.2,0.3c-0.1,0.5-0.1,1-0.1,1.4c0,0.3,0.1,0.6,0.2,0.8
						c-0.1,1.2-0.2,1.9-0.2,2.1c0.3,0.2,0.6,0.3,0.8,0.3v0.3c-0.7,0.1-1,0.9-1,2.3c-0.4,0.9-0.6,1.4-0.5,1.5H493
						c-0.9,0-1.4-0.4-1.4-1.2l0.1-0.3c-0.1,0-0.3-0.2-0.5-0.6c-1.8,0.5-2.7,0.9-2.7,1.1c0.6,0,0.9,0.3,0.9,0.8
						c0,0.9-0.5,2.1-1.7,3.5c0,0.3-0.3,0.5-1.1,0.6c-0.4-0.1-0.8-0.4-1.1-0.9c0-0.7,0.8-2,2.4-4h0.2V-43H488
						c-0.7,0.4-1.6,0.6-2.7,0.6H484c-0.7,0-1.3-0.4-1.8-1.2v-0.5c3.1,0,4.6-0.5,4.5-1.5c0.2-1,0.2-1.7,0.2-2.3v-1.2
						c0.2-0.2,0.3-0.8,0.4-1.7c-0.1-0.4-0.3-0.8-0.5-1.1c0.4,0,0.6-0.8,0.7-2.3V-55c-0.7,0.3-2,0.5-3.8,0.5c-0.4,0-0.8-0.3-1.2-0.8
						c3.6-0.5,5.4-1.3,5.4-2.3c0-0.1,0-0.3,0.1-0.5c-0.1-0.5-0.2-1-0.2-1.4v-0.1c0-0.2,0.1-0.3,0.3-0.3c1,0,1.7,0.8,1.9,2.4l0.3,0.2
						c0.2-0.1,0.4-0.2,0.6-0.2v-0.6C491-59.6,491.3-60.4,491.6-60.4z M488.8-45.3c1.8-0.2,2.7-0.7,2.7-1.5l-0.1-1.8
						c-1.6,0.4-2.4,0.8-2.4,1.4C489.1-46.8,489-46.1,488.8-45.3z M489.5-50.6v0.6l1.8-0.3v-0.9H491C490-51.1,489.5-50.9,489.5-50.6z
						 M489.9-53.1h1.4c-0.1-1.7-0.3-2.6-0.6-2.6h-0.2C490.1-55.6,489.9-54.8,489.9-53.1z M491.4-41.6c2.1,0.6,3.1,1.4,3.1,2.4v0.1
						c-0.2,0-0.4,0.1-0.6,0.3h-0.8c-1,0-2.1-0.7-3.3-2.1v-0.6L491.4-41.6z M502.8-55.8c2,0.1,3.1,0.5,3.2,1.1l0.1,2.6
						c0,0.2,0,0.4-0.1,0.6c0.1,0.8,0.3,1.2,0.4,1.2l-0.1,1.1v0.2c0.1,2.6,0.1,4.7,0.1,6.2l0.6,6.6c-0.2,0.9-0.5,1.4-0.7,1.4H506
						c-1.2,0-2.4-1-3.7-3c-0.3-0.1-0.5-0.4-0.5-0.9l0.3-0.2h0.6c0.1,0,0.6,0.5,1.3,1.5h0.3l-0.2-4.6l-0.2-1.8h-0.2
						c-0.8,0.9-2.1,1.7-3.9,2.4c-0.5,3.8-2,5.6-4.6,5.6c-0.4,0-1.1-0.4-1.9-1.2c1.8,0,2.8-0.6,3.1-1.8c0.8-3.1,1.2-5.2,1.1-6.4h-0.6
						c-0.6,0-1.1-0.4-1.4-1.1c0-0.7,0.7-1.4,2.1-2c0.2-1.1,0.2-2.1,0.2-3.2c0-0.6-0.2-1.1-0.7-1.5v-0.2l1.4-0.2
						c0.5,0,1.1,0.5,1.6,1.5l-0.1,0.8c0.1,1,0.4,1.5,0.8,1.5c1.4-0.1,2.3-0.2,2.6-0.2c0.1,0.2,0.2,0.4,0.2,0.5h0.5l-0.2-5.2
						c-0.8,0-1.2-0.4-1.3-1.2C502.7-55.6,502.8-55.7,502.8-55.8z M500.5-44.7c0,0.5,0.2,0.8,0.3,0.8c0.8,0,1.9-0.2,3.3-0.6l-0.1-3.1
						l-0.2-0.3c-2.3,0.5-3.5,1.3-3.4,2.3L500.5-44.7z"/>
					<path class="st5" d="M514.7-59.9c2.9,1,4.3,2.1,4.3,3.2v0.3l-0.9,0.3c-2.7-0.9-4-2.1-4-3.4L514.7-59.9z M520.6-53.9v0.5
						c0,0.2-0.8,2-2.4,5.3c0,0.7-0.6,1.4-1.8,2.3h-0.6c-1.1-0.7-1.6-2-1.6-4c0-0.7,0.4-1.3,1.3-1.8c0.3,0.8,0.5,1.3,0.5,1.6h0.2
						C518.5-52.7,520-53.9,520.6-53.9z M522.9-63.4c1,0,1.6,0.9,1.7,2.6v0.5l5.9-1.6h1.4c0.7,0,1.2,0.4,1.4,1.3h0.2v0.3
						c-2.2,2.1-4,3.5-5.5,4l-0.5,0.6l0.2,0.3c0.1,0,0.2-0.1,0.2-0.2c1.4,0.1,3.8,1.2,7,3.2c0.2,0.6,0.3,0.9,0.3,1
						c-0.1,0.6-0.3,1-0.5,1l-1.1-0.2v0.2c-1.4-0.4-3.1-1.4-5.3-3c-1-0.4-1.7-0.6-2.1-0.6c0,0.4-0.6,1.1-1.9,2.2
						c1.1-0.1,1.9-0.2,2.4-0.2c0.9,0,1.5,0.7,1.8,2.1l-0.1,0.3c0.2,0.9,0.5,3.8,0.9,8.6c0.1,0,0.2,0.1,0.2,0.3l-0.2,0.8l0.2,0.8
						c0,0.6-0.4,1-1.1,1c0-0.1-0.1-0.2-0.2-0.2v0.3h-0.5c0-0.3-0.2-0.7-0.6-1.3v-0.2H527c0,0.5-0.2,1-0.6,1.6v0.2l0.3-0.2h0.2
						c0.6,0,1.3,0.5,2.3,1.6c1.2,1,1.8,1.9,1.8,2.6v0.3c-0.2,0.4-0.6,0.6-1.1,0.6h-0.2c-0.8,0-2.3-1.3-4.3-4
						c-1.2,1.6-2.3,2.5-3.4,2.7h-0.5c-0.2,0-0.4-0.2-0.6-0.6c0-0.2,0.6-0.8,1.7-1.8c1.2-1.5,1.8-2.4,1.8-2.7
						c-2.1,0.8-3.6,1.3-4.3,1.3c0-0.1-0.1-0.2-0.2-0.2v0.2c-1.1-0.4-1.6-1.1-1.6-2.1v-0.2c0.2-0.5,0.8-1.1,1.6-1.8h0.2l0.2,1v1.1
						c0.7-0.2,1.1-0.3,1.3-0.3c-0.5-0.4-0.8-0.8-0.8-1.3l0.2-1.6c-0.2,0-0.3-0.2-0.5-0.5v-0.3c0.5-0.4,0.8-1.1,0.8-2.2h-0.2
						c-0.4,0-0.6-0.2-0.6-0.5v-0.2l0.2-0.3c-0.2,0-0.3-0.1-0.3-0.3v-0.2c0.3-0.5,0.7-0.8,1.3-0.8v-0.2l0.2-1.6l-1.4-0.3
						c0-0.3,0.8-1.1,2.3-2.3c2.2-2.3,3.5-4.3,4-6.1c-0.1-0.2-0.2-0.4-0.2-0.7c-0.7,0.1-1.2,0.2-1.4,0.3c-0.2-0.1-0.4-0.2-0.5-0.2
						c-0.8,1.6-1.6,2.4-2.2,2.4l-0.5-0.6c0.5-2,0.8-3.3,0.8-3.8V-62l-0.2-1.6C522.3-63.2,522.5-63.3,522.9-63.4z M522.2-40.5h0.3
						c1.7-0.5,2.8-0.8,3.2-0.8c0,0.1,0.1,0.2,0.2,0.2c0-0.1,0-0.4,0.2-1h0.2c0.5,0.4,0.7,0.7,0.8,0.7h0.2l-0.3-3.2
						c-0.7,0.6-2,1.2-3.7,1.9L522.2-40.5z M523.3-51.2l-0.2,0.3c0.1,1.5,0.2,2.3,0.3,2.4c1.2-0.1,1.8-0.2,1.8-0.3
						c1,0.4,1.6,0.6,1.8,0.6v-0.2l-0.2-2.6c-0.6,0-1.3,0.1-2.2,0.2C523.9-51.1,523.5-51.2,523.3-51.2z M523.2-45.9v0.8
						c0.5,0,1.6-0.4,3.2-1.1c0.2,0.1,0.4,0.2,0.5,0.2v-1.8c-0.5,0.7-1.7,1.2-3.5,1.6L523.2-45.9z M528-59.5l0.5,1.1
						c0.8-0.5,1.3-0.8,1.4-1.1v-0.2h-0.2C528.8-59.6,528.2-59.5,528-59.5z"/>
					<path class="st5" d="M553.4-56.4c0.7,0.2,1,0.4,1,0.6v0.5c-0.1,0.3-0.4,0.5-1,0.5c0,0.2,0.4,0.4,1.1,0.7
						c4.4-1.2,6.9-1.8,7.5-1.8h0.6c0.2,0,0.3,0.1,0.3,0.3v0.3c-0.4,1-0.7,2.2-1,3.6c0,0.1,0,0.2,0.2,0.2l-0.2,0.8v0.6l0.6,0.5v0.2
						c-0.2,0.5-0.4,0.8-0.5,0.8c0,2.2,1.2,4.6,3.6,7.3h0.2c0.6-2.5,1.1-3.7,1.3-3.7c0.4,0,0.6,0.9,0.6,2.7v2.1c0,0.6-0.2,0.9-0.5,1
						H567c-1.2-0.2-2.5-0.9-3.7-2.3c-1.3-1.5-2.1-3.6-2.6-6.3c-1.9,0.9-3,1.3-3.2,1.3v3.6l-0.2,0.3c0.2,0,0.3,0.2,0.5,0.5v0.8h-0.3
						v0.2c0.2,0.3,0.3,0.5,0.3,0.7c-0.1,1.6-0.3,2.4-0.6,2.4l-1.3-1.1c-0.2-0.9-0.3-1.9-0.3-2.9l0.3-0.6c-0.1-1.1-0.2-2-0.2-2.6
						v-0.5l-0.8,0.2h-1.3c-0.1,0-0.4-0.3-0.8-0.8v-0.6l2.9-0.5v-5l-1.6,0.3c-0.7,0-1.2-0.7-1.6-2.1h-0.3c-3.7,1.5-6.4,2.3-8.1,2.3
						c-1.6-0.3-2.4-0.6-2.4-0.8v-0.2h0.2C543.1-53.2,546.9-54.2,553.4-56.4z M551.6-52c0.3,0.5,0.5,0.9,0.5,1.1
						c-1.1,0.8-3.2,1.3-6.3,1.8c-0.7-0.2-1.4-0.3-2.1-0.3C543.7-49.8,546.3-50.7,551.6-52L551.6-52z M551-49.4
						c0.4,0.4,0.7,0.9,0.7,1.3c-2.8,1.2-4.6,1.8-5.5,1.8c-1.1-0.5-1.7-0.8-2-0.8c0-0.3,0.9-0.6,2.8-0.8
						C549.2-49,550.5-49.4,551-49.4z M551.1-46.4c0.8,0,1.4,0.8,1.8,2.4l-1.3,2.3l0.2,1c-1.1,1.1-1.8,1.6-2.3,1.6H549
						c-0.2,0-0.5-0.4-1.1-1.1v-0.2c0-0.4,0.5-1.3,1.6-2.7c0.1-0.2,0.2-0.4,0.2-0.6l-0.3-0.2c-0.8,0.2-1.2,0.3-1.3,0.3
						c-0.1,0-0.4-0.1-1-0.2v0.2c0,0.4,0.2,1.6,0.5,3.7l-0.5,0.3c-1.3,0-2.1-1.9-2.4-5.8l0.3-0.2c0.4,0,0.9,0.2,1.4,0.7
						C548.5-45.9,550-46.4,551.1-46.4z M547.3-57.9h0.2c1.1,0,2,0.4,2.6,1.3v0.2c0,0.2-0.2,0.3-0.5,0.5h-0.2
						C548-56.1,547.3-56.7,547.3-57.9z M556.8-53v0.3c0.5,0,0.8,0.6,0.8,1.9v0.5l-0.2,0.8c0.1,0.2,0.2,0.5,0.2,0.8v0.5
						c1.1-0.2,2.2-0.6,3.1-1.1c0-0.3-0.2-0.5-0.5-0.5v-0.3c0.4,0,0.7-1.5,0.7-4.4c0.1,0,0.2-0.1,0.2-0.2h-0.2
						C558.7-54,557.4-53.5,556.8-53z"/>
				</g>
			</g>
			<g>
				<line class="st6" x1="568" y1="-48.3" x2="599" y2="-48.3"/>
				<line class="st6" x1="599" y1="-48.8" x2="629.2" y2="38.3"/>
			</g>
		</g>
	</g>
	<g id="wellcome">
		<g>
			<line class="st2" x1="776" y1="90.7" x2="775.7" y2="90.6"/>
			<g>
				<g>
					<defs>
						<path id="SVGID_5_" d="M872.8-203.7c-61.1,0-110.4,49.5-110.4,110.5c0,55,40.2,100.5,92.7,109.1c2.4,0.4,4.9,0.9,7.4,1.1
							c0.5,0.1,1,0.2,1.6,0.2h0.1h-1.9L723,20v65.8l52,4.8l0,0l-0.2,5.2l-45.7,110l-5.8,1.6H723v121.4c10-7.9,20.9-15.2,20.9-15.2
							l92-44.9l42.6-107.6l9.4,16.2v-379.9C883-203.3,878-203.7,872.8-203.7z M885.7,16.7C885.7,16.7,885.6,16.7,885.7,16.7
							L885.7,16.7h0.3C885.9,16.7,885.8,16.7,885.7,16.7z"/>
					</defs>
					<clipPath id="SVGID_6_">
						<use xlink:href="#SVGID_5_"  style="overflow:visible;"/>
					</clipPath>
				</g>
			</g>
		</g>
		<g>
			<g>
				<rect x="759" y="332.2" class="st7" width="143" height="56"/>
				<g>
					<path class="st5" d="M774.5,345.5c0.3,0,0.7,0.1,1.1,0.4c0.2,0.9,0.2,1.9,0.2,2.9c1.8,0,3-0.9,3.4-2.7c0.3-0.3,0.6-0.4,0.8-0.4
						c0.9,0,1.3,0.6,1.3,1.7c1.7-0.4,2.6-0.6,2.8-0.6l0.6,1v0.4c-3.2,0.6-4.7,1.3-4.7,2.1l0.2,1v0.6h0.4c1.8,0,2.7,0.7,2.7,2.1
						c0,0.9-1.3,2.3-3.8,4.2c0,0.2-0.1,0.4-0.4,0.7c2.5,0,3.8,0.5,3.8,1.5c-0.4,0.2-0.8,0.4-1.1,0.4h-2.5c-0.7-0.6-1.1-0.9-1.1-0.9
						c-0.8,0.4-1.1,0.8-1.1,0.9v0.2c0.5,0.9,0.8,1.3,1,1.3h0.4c1.8-0.4,2.8-0.6,2.9-0.6c1.1,0.3,1.8,0.6,2.1,1h0.2
						c0,0.2-0.9,0.7-2.7,1.5v0.6c1.4,0.3,2.1,0.6,2.1,0.9c-0.1,0.5-0.6,0.8-1.5,0.8H781v0.9c0.4,0,1-0.3,1.9-0.8
						c0.5,0.5,0.9,0.9,1.1,1.3c0,0.5-1.1,1.1-3.2,1.9v0.4l0.2,1c0.9-0.1,1.9-0.4,3-1l0.2,0.4v0.4c-1.3,1.6-2.5,2.5-3.6,2.5
						c-1.4-0.5-2.1-1.5-2.1-3c0-0.1-0.3-0.2-1-0.4l-0.4,1.7l0.2,0.4c-0.2,1.8-0.7,2.7-1.5,2.7c0-0.1-0.3-0.4-0.9-1v-0.7
						c0-1.2,0.3-3.8,0.9-8c0-0.1-0.1-0.2-0.2-0.2l0.2-1.3V362h-0.2c-2.9,2.7-4.8,4-5.7,4l-0.6-0.8c0.4-0.9,2.4-3.1,6.2-6.6h0.2v-1
						h-0.2c0,0.5-0.5,1.1-1.5,1.7c-0.1-0.2-0.2-0.5-0.2-0.7c-0.1,0-0.2,0.1-0.2,0.2c-1.7,0-2.9-1.6-3.6-4.7c1.5-0.9,2.7-1.4,3.8-1.5
						v-1.3l-0.2-0.4c-1.5,0.1-2.6,0.2-3.2,0.2h-0.9l-1-0.2v-0.4c2.4-0.4,4.1-0.7,5.1-1.1C773.2,346.8,773.5,345.5,774.5,345.5z
						 M772.9,355.8c0,0.9,0.2,1.5,0.6,1.5h0.2l1.7-2.7l-0.4-0.2C773.9,354.9,773.3,355.3,772.9,355.8z M775.7,350.7l0.2,1.3v0.6h0.2
						c0.4,0,0.9-0.9,1.5-2.5h-0.2C776.8,350.1,776.2,350.3,775.7,350.7z M777.4,354.5h0.2c-0.2,0.7-0.8,1.7-1.7,2.8h0.2
						c0.2-0.4,1-0.9,2.3-1.3l-0.2-0.4v-2.3C777.9,353.4,777.6,353.7,777.4,354.5z M777.6,366.4v1.3l-0.2,0.4h0.2
						c0.4-0.3,0.7-0.4,0.9-0.4v-0.8C778.5,366.7,778.2,366.5,777.6,366.4z M777.7,364v0.9l-0.2,0.2h0.2c0.4-0.2,0.7-0.2,0.9-0.2
						v-0.5C778.6,364.2,778.3,364.1,777.7,364z M780.3,353.5c0,0.4-0.1,1-0.2,1.7h0.4c0.2,0,0.4-0.2,0.6-0.6V354
						C781,353.9,780.8,353.7,780.3,353.5z M788.4,353.1h0.4c1.1,0.2,1.7,0.8,1.7,1.7c0,0.8-0.4,2.3-1.1,4.7h0.2
						c2.4-1.4,4.6-2.1,6.4-2.1h0.6c0.7,0,1.1,0.3,1.3,0.8c-0.4,2.6-1.3,4.7-2.7,6.1c-0.9,0.5-1.3,0.8-1.3,0.9l-1-0.2h-0.4
						c-0.3,0-0.5,0.5-0.6,1.5c1,0,2.9,1.8,5.9,5.3l0.2,1c-0.2,0.5-0.5,0.9-1,1.1c-0.9,0-2.3-1.3-4-4l-1.5-1.3
						c-3,3.7-4.9,5.5-5.9,5.5l-1.1,0.2c-0.7,0-1.2-0.3-1.5-1v-0.1c0-0.3,0.6-0.5,1.9-0.7c1.7-1.8,3.1-4,4.4-6.6c0-0.4,0.3-1.5,1-3.3
						v-0.9c-0.8,0-2,0.9-3.4,2.7h-0.4c-0.8-0.6-1.1-1.4-1.1-2.5c0-0.7,0.5-2,1.5-3.8c0.6-2,1-3.2,1-3.6v-0.2l-0.6-0.7
						C787.7,353.3,788.1,353.1,788.4,353.1z M791.3,361.7v0.4c0.5,0.5,0.7,1.2,0.7,1.9v0.4h0.4c0.5-0.3,1.4-1.4,2.5-3.2h0.4v-0.4
						C793.7,361,792.3,361.3,791.3,361.7z"/>
					<path class="st5" d="M805.2,356.2c2.4,1,3.6,3.3,3.6,6.9l-0.6,3.3h0.2c7.6,3,13.1,4.5,16.3,4.5c0,0.1,0.1,0.2,0.3,0.2
						c3.3-0.2,5.4-0.4,6.3-0.6v1.2c-0.4,0.5-3,1.4-8.1,2.5c-2.7,0-5.4-0.7-8.1-2c-5.7-2-9.5-3.6-11.2-4.8c0-0.4-0.1-0.7-0.2-0.8
						c0.1-0.2,0.2-0.5,0.2-1h1.2c1.1-0.7,1.7-1.7,1.7-3.1c0-2-0.6-3.8-1.8-5.6v-0.3C805.1,356.4,805.2,356.3,805.2,356.2z
						 M806,351.2c1.5,0.3,2.3,0.9,2.3,1.8v0.8c0,0.2-0.1,0.3-0.3,0.3h-1.2c-0.5-0.3-0.8-0.7-0.8-1.3V351.2z M817.9,348.4h0.2
						c1.4,0,2.2,0.7,2.5,2c0,0.3-0.3,0.7-0.8,1.3c-0.1,0-0.2-0.1-0.2-0.2c-0.3,0-1.5,0.2-3.5,0.6v-0.2c-0.4,0.1-0.7,0.2-0.7,0.5
						l-0.3-0.2c-0.7,0-1.7,0.2-3,0.7c0-0.1-0.1-0.2-0.2-0.2c0,0.2-0.3,0.3-0.8,0.3v0.2c2.2,0.7,3.3,2.4,3.3,5.1v1.3l-0.2,0.3
						c0.6-0.4,1.8-1.3,3.5-2.6h0.2v0.2l-1.8,3.3l-1.5,3.3c-0.1,0-0.1,0.1-0.1,0.2c-1.8-0.7-2.6-1.6-2.6-2.6v-6.1
						c0-0.8-0.4-1.5-1.2-2l-1.7,0.6V354l-0.3,0.2h-0.2V354C813,350.3,816.2,348.4,817.9,348.4z M821.7,351.4h0.2
						c0,0.2,0.5,0.8,1.6,2v0.2c2.1-0.9,3.7-1.3,4.8-1.3c1,0,1.5,0.6,1.5,1.7c-1.4,6.6-2.4,9.9-2.9,9.9c0,0.1-0.1,0.2-0.3,0.2
						c-0.7-0.4-1.6-1.1-2.6-2.1c0,1.7-0.5,4-1.6,6.9v0.7c-0.6,0-0.8-3.3-0.8-9.9l-0.2-1.2c0.1-0.4,0.2-0.9,0.2-1.5v-0.5h-0.5l-1,0.2
						c-0.7,0-1.2-0.5-1.3-1.5v-0.3l0.8-0.2l0.4,0.2c0.2-0.1,0.4-0.2,0.6-0.2v0.2c0.7-0.2,1-0.5,1-0.8c-0.1-1.4-0.2-2.1-0.2-2.1
						L821.7,351.4z M823.8,355.9h0.1c0,0.1,0,0.2-0.1,0.2l0.1,0.8v0.3c0,0.1,0,0.2-0.1,0.2l0.1,0.3l-0.1,1c0,0.1,0,0.2,0.1,0.2
						l-0.1,0.3v0.2c0,0.1,0,0.2,0.1,0.2c-0.1,0.2-0.1,0.4-0.1,0.5c0,0.3,0.4,0.7,1.2,1.1c1.1-2.6,1.6-4.6,1.6-5.9v-0.7
						C825.1,355.1,824.2,355.5,823.8,355.9z"/>
					<path class="st5" d="M853.2,354.5h0.5c0.3,0,0.5,0.1,0.7,0.2c0.2-0.1,0.4-0.2,0.7-0.2h0.5l1.6,1.4v0.2c-0.2,1-0.5,1.6-1,1.6
						c-0.1,0-0.7-0.1-1.7-0.2c-1.9,0.7-3.4,1.2-4.3,1.4v0.3c1.7,0,2.9,1,3.5,2.9h0.2c0.5-0.3,0.9-0.5,1.2-0.5l-0.2-0.4h0.3
						c0.1,0,0.2,0.1,0.2,0.2c0.9-0.4,1.4-1,1.4-1.9v-0.3h0.2c0.8,0.6,1.5,0.9,1.9,0.9h0.4c0.4,0,0.5-0.2,0.5-0.7h2.9v0.2l-0.4,0.5
						c0.6,0,0.9,0.1,0.9,0.4v0.3c0,0.4-1.3,0.9-4,1.6c0.5,3.4,0.7,5.4,0.7,5.7c-0.6,5.1-1.1,7.6-1.7,7.6c-0.2,0.1-0.4,0.2-0.7,0.2
						c-0.7-1.5-1-3.5-1-6.1c0-1.1,0.1-2.3,0.2-3.6c-0.1-0.7-0.2-1.7-0.2-2.9l-0.4-0.2c-1.7,0.3-2.6,0.7-2.6,1c0,1.3-0.9,2.9-2.6,4.7
						c-0.5,0.7-0.9,1-1.2,1v0.2c-0.4,0-1.5-1.1-3.3-3.3v-0.2h0.2c0.6,0.3,1.6,0.5,2.9,0.7c0,0.1,0.1,0.2,0.2,0.2
						c0.5-0.4,1-1.7,1.6-3.8h-0.7v-0.2c0-0.3,0.3-0.4,0.9-0.5V362c0-0.6-0.6-1.6-1.7-2.9l-0.4,0.2c-1.3-0.2-1.9-0.4-1.9-0.7
						c0.1-0.2,0.2-0.4,0.2-0.5c-0.1,0-0.2-0.1-0.2-0.2c0.6,0,1.5-0.2,2.6-0.7V357h-0.2c-2.6,0.7-4.1,1-4.3,1v0.4
						c0,0.6,0.1,1.4,0.2,2.6c0.4,0,1-0.2,2.1-0.5v-0.2c0-0.1-0.2-0.4-0.7-0.9v-0.2h0.2l1,0.5l0.9-0.2l0.9,1.1v0.2
						c0,0.6-1.4,1.3-4.3,2.1v0.9c0,0.1,0.1,0.2,0.2,0.2l-0.2,0.3v2.3c0,0.1,0.1,0.2,0.2,0.2l-0.2,0.3v1.9l-0.3,1.2
						c0,0.1,0.1,0.3,0.2,0.5c-0.5,2.3-1.2,3.5-2.1,3.5c-1.7-0.8-2.6-1.7-2.6-2.8h0.2l-0.2-0.4v-0.4l1.4,1.2h0.5
						c0.3-1.8,0.5-3.5,0.5-5.4v-3c-1.3,0.5-2.8,0.8-4.5,1l-0.9-1c0-0.9,0.3-1.5,0.9-1.9c0,0.1,0.1,0.2,0.2,0.2l-0.4,0.7h0.4
						c3-0.4,4.5-0.8,4.5-1.2v-2.6c-4.6,1.4-7.2,2.1-7.6,2.1c-1-0.4-1.6-1.3-1.6-2.4h0.5v0.3c0.9,0,2.9-0.6,6.1-1.9
						c3.5-1,6.3-1.6,8.5-1.6v0.2c0,0.2,0.3,0.5,1,0.7l0.2,0.4l-0.4,0.5h0.2l1.7-1.6v-0.1h-0.4V355c0.7,0,1-0.1,1-0.4l0.4,0.2h0.2
						v-0.3H853.2z M840,345c0.7,0.1,1,0.3,1,0.5c0.1,0,0.3-0.1,0.7-0.2c2.3,0.6,3.5,1.3,3.5,1.9c0.4,0,0.8,0.6,1,1.9
						c0.6,0.3,1,0.5,1.4,0.5v0.4l-0.5,0.7l0.2,0.7c-0.7,1.9-1.9,3.2-3.5,4l-0.9,0.3c-0.2,0-0.6-0.2-1.2-0.7c-0.7,0-1,0.5-1,1.4h-0.5
						c-1.2-0.6-1.7-1.5-1.7-2.6l0.2-0.9c-0.1-0.2-0.8-0.4-2.1-0.5c-0.2-0.7-0.4-1.3-0.4-1.6v-0.2c0-0.2,0.2-0.3,0.4-0.3h0.2v0.5
						c4.1-0.7,6.3-1.3,6.8-1.7v-0.2h-0.9c0-0.2,0.3-0.4,1-0.5c-1.8-2.1-3-3.1-3.6-3.1L840,345L840,345z M837.9,366.1
						c1.2,0.5,1.7,1.2,1.7,2.1c-0.2,0-0.8,0.8-1.7,2.3h-0.2c-0.2,0-0.3-0.2-0.3-0.7c-0.1,0-0.2,0.1-0.2,0.2
						c-0.2-0.1-0.4-0.2-0.5-0.2v-1c0-0.1-0.1-0.2-0.2-0.2C836.6,368.3,837.1,367.5,837.9,366.1z M844.5,351.1
						c-0.2,0.5-0.3,0.8-0.3,0.9H844v-0.8c-1.3,0.1-2.5,0.5-3.6,1c0,0.1,0.1,0.2,0.2,0.2l-0.2,0.7c0,0.2,0.1,0.7,0.3,1.6h0.2
						c0-0.4,0.5-0.7,1.6-0.9c0.1,0,0.2,0.1,0.2,0.2c0.5-0.1,1.2-1,2.1-2.8V351h-0.3V351.1z"/>
					<path class="st5" d="M879.9,347.9h0.2c1.1,0,1.6,0.9,1.6,2.8c0.3,0.9,0.4,2,0.4,3.4h0.5c0.7,0,1.3-0.6,2-1.8
						c1.7,0.6,2.5,1.3,2.5,2.3c-0.2,1-1.5,1.9-4.1,2.9c-1,0.2-1.5,0.8-1.5,1.8v0.2c0.3,0.6,0.5,1.2,0.4,1.6h2.9
						c1,0.2,1.4,0.5,1.4,0.8v0.2c0,1-1.5,1.9-4.4,2.6c0.2,2,0.4,3.2,0.7,3.7c1.6-0.3,3.4-0.5,5.5-0.5h0.1c0.7,0,1.3,0.4,1.9,1.3
						c0,1.2-1.4,1.8-4.1,1.8c-4.7,0.9-8.6,1.3-11.7,1.3c-1.7,0-2.6-0.7-2.5-2.1c0-0.3,0.3-0.6,0.8-0.8c1.1,0.1,1.8,0.2,1.9,0.2
						c1.6,0,2.4-0.3,2.4-1c0-0.5,0.1-0.8,0.2-1c0.7,0.3,1.3,0.5,1.6,0.5v-1.8l-0.2-0.3c-1.1,0-2.3,0.3-3.4,0.8l-0.8-0.2
						c-0.6,0.1-1.1,0.2-1.5,0.2c-0.5-0.6-0.8-1.3-0.8-2v-0.3c0-0.7,2.1-1.4,6.2-2.3c0.1-0.2,0.2-0.4,0.2-0.5c0-1.6-0.1-2.4-0.4-2.4
						c-1.9,0.6-3.3,1-4.1,1c-0.6-0.5-1.2-1.2-1.7-2.1c0.5-1.1,0.8-2,0.9-2.7c-0.2-0.5-0.3-1-0.3-1.6c0.1-0.5,0.3-0.8,0.5-0.8
						c1.3,0.6,1.9,1.5,1.9,2.9c0,0.3,0.1,0.5,0.3,0.5c2.1,0,3.1-0.7,3.1-2.1C879,350,879.4,347.9,879.9,347.9z"/>
				</g>
			</g>
			<line class="st8" x1="814.5" y1="263.2" x2="814.5" y2="340.2"/>
		</g>
	</g>
	<g id="notice">
		<g>
			<g>
				<g>
					<defs>
						<polygon id="SVGID_7_" points="1054,12.9 1054,116.4 985.8,110.1 986.3,111.4 1054,203.1 1054,427.5 1042.3,437.2 888,178 
							888,17.2 888.5,17.2 						"/>
					</defs>
					<clipPath id="SVGID_8_">
						<use xlink:href="#SVGID_7_"  style="overflow:visible;"/>
					</clipPath>
				</g>
			</g>
			<g>
				<g>
					<defs>
						<path id="SVGID_9_" d="M1016.2-132.1l-35,15.8c1.6,7.5,2.5,15.3,2.5,23.3c0,53.3-37.9,97.7-88.1,108.2
							c-2.4,0.5-4.5,0.9-7.5,1.3v-219c35,4.8,64.3,25.7,80.9,54.8l33.3-15c8.5-3.8,18.5,0,22.3,8.4
							C1028.3-145.9,1024.6-135.9,1016.2-132.1z"/>
					</defs>
					<clipPath id="SVGID_10_">
						<use xlink:href="#SVGID_9_"  style="overflow:visible;"/>
					</clipPath>
				</g>
			</g>
		</g>
		<g>
			<g>
				<rect x="1003" y="-281.8" class="st9" width="143" height="52"/>
				<g>
					<path d="M1030.7-262.5h0.5c0.3,0,0.5,0.1,0.7,0.2c0.2-0.1,0.4-0.2,0.7-0.2h0.5l1.6,1.4v0.2c-0.2,1-0.5,1.6-1,1.6
						c-0.1,0-0.7-0.1-1.7-0.2c-1.9,0.7-3.4,1.2-4.3,1.4v0.3c1.7,0,2.9,1,3.5,2.9h0.2c0.5-0.3,0.9-0.5,1.2-0.5l-0.2-0.4h0.3
						c0.1,0,0.2,0.1,0.2,0.2c0.9-0.4,1.4-1,1.4-1.9v-0.3h0.2c0.8,0.6,1.5,0.9,1.9,0.9h0.4c0.4,0,0.5-0.2,0.5-0.7h2.9v0.2l-0.4,0.5
						c0.6,0,0.9,0.1,0.9,0.4v0.3c0,0.4-1.3,0.9-4,1.6c0.5,3.4,0.7,5.4,0.7,5.7c-0.6,5.1-1.1,7.6-1.7,7.6c-0.2,0.1-0.4,0.2-0.7,0.2
						c-0.7-1.5-1-3.5-1-6.1c0-1.1,0.1-2.3,0.2-3.6c-0.1-0.7-0.2-1.7-0.2-2.9l-0.4-0.2c-1.7,0.3-2.6,0.7-2.6,1c0,1.3-0.9,2.9-2.6,4.7
						c-0.5,0.7-0.9,1-1.2,1v0.2c-0.4,0-1.5-1.1-3.3-3.3v-0.2h0.2c0.6,0.3,1.6,0.5,2.9,0.7c0,0.1,0.1,0.2,0.2,0.2
						c0.5-0.4,1-1.7,1.6-3.8h-0.7v-0.2c0-0.3,0.3-0.4,0.9-0.5v-0.9c0-0.6-0.6-1.6-1.7-2.9l-0.4,0.2c-1.3-0.2-1.9-0.4-1.9-0.7
						c0.1-0.2,0.2-0.4,0.2-0.5c-0.1,0-0.2-0.1-0.2-0.2c0.6,0,1.5-0.2,2.6-0.7v-0.2h-0.2c-2.6,0.7-4.1,1-4.3,1v0.4
						c0,0.6,0.1,1.4,0.2,2.6c0.4,0,1-0.2,2.1-0.5v-0.2c0-0.1-0.2-0.4-0.7-0.9v-0.2h0.2l1,0.5l0.9-0.2l0.9,1.1v0.2
						c0,0.6-1.4,1.3-4.3,2.1v0.9c0,0.1,0.1,0.2,0.2,0.2l-0.2,0.3v2.3c0,0.1,0.1,0.2,0.2,0.2l-0.2,0.3v1.9l-0.3,1.2
						c0,0.1,0.1,0.3,0.2,0.5c-0.5,2.3-1.2,3.5-2.1,3.5c-1.7-0.8-2.6-1.7-2.6-2.8h0.2l-0.2-0.4v-0.4l1.4,1.2h0.5
						c0.3-1.8,0.5-3.5,0.5-5.4v-3c-1.3,0.5-2.8,0.8-4.5,1l-0.9-1c0-0.9,0.3-1.5,0.9-1.9c0,0.1,0.1,0.2,0.2,0.2l-0.4,0.7h0.4
						c3-0.4,4.5-0.8,4.5-1.2v-2.6c-4.6,1.4-7.2,2.1-7.6,2.1c-1-0.4-1.6-1.3-1.6-2.4h0.5v0.3c0.9,0,2.9-0.6,6.1-1.9
						c3.5-1,6.3-1.6,8.5-1.6v0.2c0,0.2,0.3,0.5,1,0.7l0.2,0.4l-0.4,0.5h0.2l1.7-1.6v-0.1h-0.4v-0.2c0.7,0,1-0.1,1-0.4l0.4,0.2h0.2
						v-0.3H1030.7z M1017.5-272c0.7,0.1,1,0.3,1,0.5c0.1,0,0.3-0.1,0.7-0.2c2.3,0.6,3.5,1.3,3.5,1.9c0.4,0,0.8,0.6,1,1.9
						c0.6,0.3,1,0.5,1.4,0.5v0.4l-0.5,0.7l0.2,0.7c-0.7,1.9-1.8,3.2-3.5,4l-0.9,0.3c-0.2,0-0.6-0.2-1.2-0.7c-0.7,0-1,0.5-1,1.4h-0.5
						c-1.2-0.6-1.7-1.5-1.7-2.6l0.2-0.9c-0.1-0.2-0.8-0.4-2.1-0.5c-0.2-0.7-0.4-1.3-0.4-1.6v-0.2c0-0.2,0.2-0.3,0.4-0.3h0.2v0.5
						c4.1-0.7,6.3-1.3,6.8-1.7v-0.2h-0.9c0-0.2,0.3-0.4,1-0.5c-1.8-2.1-3-3.1-3.6-3.1v-0.3H1017.5z M1015.5-250.9
						c1.2,0.5,1.7,1.2,1.7,2.1c-0.2,0-0.8,0.8-1.7,2.3h-0.2c-0.2,0-0.3-0.2-0.3-0.7c-0.1,0-0.2,0.1-0.2,0.2
						c-0.2-0.1-0.4-0.2-0.5-0.2v-1c0-0.1-0.1-0.2-0.2-0.2C1014.1-248.7,1014.6-249.5,1015.5-250.9z M1022-265.9
						c-0.2,0.5-0.3,0.8-0.3,0.9h-0.2v-0.8c-1.3,0.1-2.5,0.5-3.6,1c0,0.1,0.1,0.2,0.2,0.2l-0.2,0.7c0,0.2,0.1,0.7,0.3,1.6h0.2
						c0-0.4,0.5-0.7,1.6-0.9c0.1,0,0.2,0.1,0.2,0.2c0.5-0.1,1.2-1,2.1-2.8v-0.2h-0.3V-265.9z"/>
					<path d="M1057.5-269.1h0.2c1.1,0,1.6,0.9,1.6,2.8c0.3,0.9,0.4,2,0.4,3.4h0.5c0.7,0,1.3-0.6,2-1.8c1.7,0.6,2.5,1.3,2.5,2.3
						c-0.2,1-1.5,1.9-4.1,2.9c-1,0.2-1.5,0.8-1.5,1.8v0.2c0.3,0.6,0.5,1.2,0.4,1.6h2.9c1,0.2,1.4,0.5,1.4,0.8v0.2
						c0,1-1.5,1.9-4.4,2.6c0.2,2,0.4,3.2,0.7,3.7c1.6-0.3,3.4-0.5,5.5-0.5h0.1c0.7,0,1.3,0.4,1.9,1.3c0,1.2-1.4,1.8-4.1,1.8
						c-4.7,0.9-8.6,1.3-11.7,1.3c-1.7,0-2.6-0.7-2.5-2.1c0-0.3,0.3-0.6,0.8-0.8c1.1,0.1,1.8,0.2,1.9,0.2c1.6,0,2.4-0.3,2.4-1
						c0-0.5,0.1-0.8,0.2-1c0.7,0.3,1.3,0.5,1.6,0.5v-1.8l-0.2-0.3c-1.1,0-2.3,0.3-3.4,0.8l-0.8-0.2c-0.6,0.1-1.1,0.2-1.5,0.2
						c-0.5-0.6-0.8-1.3-0.8-2v-0.3c0-0.7,2.1-1.4,6.2-2.3c0.1-0.2,0.2-0.4,0.2-0.5c0-1.6-0.1-2.4-0.4-2.4c-1.9,0.6-3.3,1-4.1,1
						c-0.6-0.5-1.2-1.2-1.7-2.1c0.5-1.1,0.8-2,0.9-2.7c-0.2-0.5-0.3-1-0.3-1.6c0.1-0.5,0.3-0.8,0.5-0.8c1.3,0.6,1.9,1.5,1.9,2.9
						c0,0.3,0.1,0.5,0.3,0.5c2.1,0,3.1-0.7,3.1-2.1C1056.6-267,1057-269.1,1057.5-269.1z"/>
					<path d="M1086.3-259.9c0.4,0,0.9,0.5,1.5,1.4v0.7c0,0.1-0.9,1-2.6,2.8v0.2c1.1,0,1.9,1,2.4,2.9v0.3c-0.4,2.2-0.9,3.3-1.6,3.3
						c-0.4,0.8-1.6,1.8-3.6,3.1l-1,0.2h-0.7l-0.2-0.9v-0.2c2.8-3,4.4-5.2,4.9-6.6c-0.1-0.6-0.5-0.9-1.1-0.9c-0.4,0-1.1,0.4-2,1.2
						h-0.9c-0.2,0-0.4-0.4-0.8-1.2c0.1-0.6,1.8-2.7,4.9-6.1C1085.5-259.7,1085.8-259.8,1086.3-259.9z M1085.6-264.6
						c1.2,0,1.8,0.9,1.9,2.6c-3.5,3.6-5.6,5.4-6.1,5.4c-0.5-0.2-0.7-0.3-0.7-0.5v-0.4C1080.5-258.1,1082.2-260.5,1085.6-264.6z
						 M1096-271c1.5,0.2,2.3,0.9,2.3,2.1c0,0.4-1.3,1.6-3.6,3.6c-0.2,0-0.3,0.2-0.5,0.7c1.7-0.8,3-1.2,4.1-1.2c1.3,0,2,1.4,2.1,4.1
						v0.2c0,0.1,0.1,0.2,0.2,0.2l-0.2,0.4l0.3,1.7l-0.1,1.2h0.2l-0.2,0.3l0.1,1.4c0,0.1,0.1,0.2,0.2,0.2l-0.4,2.6h0.2
						c0,0.1-0.1,0.2-0.2,0.2l0.2,0.7c0,0.6-0.1,0.9-0.3,0.9l0.2,1.2l0.1,1.7c0,0.2-0.2,0.4-0.7,0.7h-0.3c-0.3,0-0.5-0.2-0.6-0.7
						l-0.5,0.4c-0.4-1-0.6-1.6-0.6-1.9h-0.2c0,0.9-1.1,2.4-3.4,4.7c-0.4,0.8-1.3,1.4-2.5,1.7c0-0.2-0.2-0.3-0.5-0.3v-0.4
						c0-0.4,1-2,3-4.8l1-1.4v-0.2l-3.8,0.5c-0.4-0.2-0.7-0.3-0.9-0.3c0,0.1-0.1,0.2-0.2,0.2l-0.4-0.5v-0.7c0-0.4,0.5-0.6,1.7-0.9
						v-0.2c-0.1,0-0.3-0.1-0.5-0.2l-1.7,0.5c-0.7-0.3-1.1-0.5-1.1-0.7v-1c1.6-0.8,2.5-1.2,2.7-1.2l-0.1-1.2c0-0.1,0.1-0.2,0.2-0.2
						c-0.2-0.8-0.4-1.2-0.6-1.2c-0.2,0.1-0.4,0.2-0.7,0.2c-0.3-0.4-0.4-0.9-0.4-1.4c0-0.3,0.5-0.8,1.5-1.6l-0.1-2.1l-0.4-0.5
						c2.5-3.1,3.8-4.8,3.7-5.2h-0.3c-1,0.1-1.5,0.2-1.5,0.4c-1,0-1.6-0.4-1.6-1.2c0.2,0,1.2-0.5,3-1.4L1096-271L1096-271z
						 M1093.9-264.4l-1.2,1v0.2l0.4,0.5l0.1,1.2l4.6-0.7l0.4,0.2l-0.1-1.7h-1.6c-0.5,0-1.2,0.4-2.2,1.2c-0.2,0-0.4-0.2-0.7-0.7
						l0.5-1.2H1093.9z M1093.5-258.3v0.7l-0.1,0.9c0.1,0,0.2,0.1,0.2,0.2c1.7-0.9,2.9-1.4,3.7-1.4c0,0.1,0.2,0.2,0.5,0.2v0.2
						c0,0.2-0.1,0.4-0.3,0.4l0.2,0.4c-0.2,0.3-1.4,1-3.4,2.1c-0.8,0.6-1.2,1.2-1.1,1.9l0.9-0.2h2.6l0.8,0.2c0-0.1-0.1-0.2-0.2-0.2
						c0-0.4,0.3-0.7,0.8-0.9c0.2-0.9,0.2-3.1,0-6.6h-0.2C1097.1-259.8,1095.6-259.1,1093.5-258.3z M1097.7-247.6h0.3
						c0.8,0,2.1,1.2,3.8,3.5c0,0.3,0.1,0.8,0.2,1.4l-0.7,0.5c-0.6,0-1.3-0.5-2.3-1.6c-0.6,0-1.2-0.8-1.8-2.3l0.1-0.4l-0.2-0.4
						C1097.4-247.3,1097.5-247.6,1097.7-247.6z"/>
					<path d="M1113.5-266h0.9c0.2,0,0.7,0.6,1.6,1.9l-0.2,0.4v0.2c0,0.2,0.2,0.3,0.5,0.3c2.6-0.6,4.3-0.9,5-0.9h0.9
						c0.1,0,0.3,0.2,0.7,0.7c0,0.8-1.3,1.4-4,1.7h-0.4c0.3,0.8,0.5,1.9,0.5,3.3c1.5-0.5,2.3-0.9,2.3-1.2h-0.3v-0.2h1
						c0.7,0.1,1,0.2,1,0.5v0.4c0,0.2-1.3,0.9-4,2.1l-0.2,0.4v0.8c0.8,0,2.5,1.6,5.4,4.9c0.9,1.8,1.4,2.8,1.4,2.9
						c-0.2,0.5-0.3,0.7-0.5,0.7l-0.3-0.2c-0.2,0.1-0.4,0.2-0.5,0.2c-2.7-2.1-4-3.5-4-4.3c-0.7-0.6-1.2-1.5-1.6-2.8h-0.4
						c-0.9,3-2.3,5.1-4.2,6.2c-0.5,0.5-1.1,0.7-1.9,0.7c-0.8-0.2-1.2-0.4-1.2-0.7c0.1-0.4,0.7-0.7,1.6-1c2.5-3,3.8-5.3,4-6.8
						c-2.1,0.9-3.6,1.6-4.7,1.9c-1-0.1-1.6-0.4-1.6-0.7c0.3,0,2.2-0.9,5.7-2.6c0.9,0,1.4-0.8,1.4-2.4v-2.1h-0.3
						c-0.7-0.1-1.2-0.2-1.6-0.2c-1.1,4.2-2.4,6.2-3.8,6.2h-0.5c-0.3,0-0.5-0.2-0.5-0.7c0.8-0.7,1.4-2.5,1.7-5.2
						c0.1-1.1,0.3-1.8,0.4-2.1c-0.1-0.2-0.2-0.4-0.2-0.7v-0.7l0.2-0.4c-0.1,0-0.2-0.1-0.2-0.2L1113.5-266z M1124.3-262.4
						c0.9,1,1.4,2,1.4,2.9c1.9-0.7,4.4-1.3,7.5-1.7v-0.2c0.9,0,1.6,0.6,2.1,1.7c0,0.5-1,1.8-2.9,3.8c0.7,0,1.1,0.2,1.2,0.5v1
						c0,0.3-1.4,0.7-4.3,1c0,0.2-0.5,0.4-1.4,0.5v-0.2c-0.3,0-0.6,0.4-0.9,1.2l-0.3-0.2c-0.2,0.1-0.4,0.2-0.5,0.2
						c-0.7-0.6-1.1-1.8-1.4-3.6l-0.9-6.8L1124.3-262.4z M1126.2-257.5c0.4,1.2,0.5,2.1,0.5,2.8c1.6-1,3-2.2,4.3-3.6v-0.2
						C1127.8-258.2,1126.2-257.9,1126.2-257.5z"/>
				</g>
			</g>
			<g>
				<line class="st10" x1="1006" y1="-250.3" x2="975" y2="-250.3"/>
				<line class="st10" x1="975.2" y1="-252.8" x2="945" y2="-165.7"/>
			</g>
		</g>
	</g>
	<g id="school">
		<g>
			<g>
				<g>
					<defs>
						<polygon id="SVGID_11_" points="1208.6,300.5 1054,427.5 1054,203.1 1098.6,263.1 1183,246 						"/>
					</defs>
					<clipPath id="SVGID_12_">
						<use xlink:href="#SVGID_11_"  style="overflow:visible;"/>
					</clipPath>
				</g>
			</g>
			<g>
				<g>
					<defs>
						<polygon id="SVGID_13_" points="1219,-48.4 1219,-48.2 1144.3,124.7 1054,116.4 1054,12.9 1062.3,12.7 1067.5,-107.1 						
							"/>
					</defs>
					<clipPath id="SVGID_14_">
						<use xlink:href="#SVGID_13_"  style="overflow:visible;"/>
					</clipPath>
				</g>
			</g>
			<polyline class="st2" points="1219.5,-48.4 1219.6,-48.3 1219.5,-48.2 			"/>
		</g>
		<g>
			<g>
				<rect x="1177" y="152.2" class="st11" width="221" height="51"/>
				<g>
					<path class="st5" d="M1202.3,163.9c0.4,0,0.7,0.5,1,1.4c-1,1.8-1.6,3-1.6,3.6h0.2c1.8-0.6,3.1-0.9,4-0.9v-1.2l0.2-0.9h-0.2
						c-0.1,0-0.2,0.1-0.2,0.2c-1.4,0-2.1-0.5-2.1-1.4c0.8-0.3,1.8-0.6,3-0.9c1.2,0.6,1.7,1.3,1.7,2.1l-0.2,0.7
						c0,0.1,0.1,0.3,0.2,0.5l-0.5,5.4c1.7-0.1,3-0.2,3.8-0.2h1.6c0.8,0.7,1.2,1.4,1.2,2.1c-1.8,0.8-4,2-6.4,3.6
						c-1.3,0.7-2.2,1-2.6,1c-0.2,0-0.3-0.2-0.5-0.5c3.1-2.3,4.8-3.8,5.2-4.3h-0.4c-7.7,1.6-13,3.1-16.1,4.5c0,0.9-0.7,2.1-2.1,3.6
						c-0.8,0-1.2-0.3-1.2-1l-0.4,0.2h-0.2c0-0.3,0.9-2.3,2.8-6.1c0.2-0.1,0.4-0.2,0.5-0.2h0.5c0.2-2.9,0.3-4.7,0.3-5.2
						c0-1.9-0.3-3.1-0.8-3.8c0-0.5-0.2-1-0.7-1.6v-0.4c0.7,0.1,1.4,0.4,2.1,1c2.4-0.8,3.8-1.2,4.2-1.2v0.5c0.1,0,0.2-0.1,0.2-0.2
						c0.4,0,0.7,0.4,0.9,1.2l0.3,0.2h0.4C1200.4,165.4,1201,164.7,1202.3,163.9z M1203.7,177.1c0,0.1,0.4,0.6,1.1,1.4
						c-2.1,2.2-3.1,3.3-3.1,3.5c0.7,0.5,1,1,1,1.4c1.1-0.2,2.8-0.5,5-0.7c0.1,0,0.2,0.1,0.2,0.2c0,0,0.3-0.1,0.7-0.2
						c1.5,0.1,2.3,0.4,2.3,0.7l-0.7,0.2v0.2c0.8,0,1.2,0.4,1.2,1.2l-3.5,0.9c-0.4-0.4-0.5-0.7-0.5-0.9c-1.7,0.1-3.1,0.3-4.2,0.5v1
						c0,2.8-0.6,4.9-1.7,6.4h-0.4c-3-0.4-4.5-1.5-4.5-3.3c1.8,0.9,2.8,1.4,3.1,1.4c0.3-0.4,0.6-1.3,0.9-2.6l0.3-0.4
						c0-0.1-0.1-0.2-0.2-0.2c0.2-1,0.3-1.6,0.3-1.9c-3.7,1.3-6.3,1.9-7.8,1.9c-0.8-0.2-1.2-0.7-1.2-1.4c0.3-0.2,1.3-0.5,3.1-0.7
						c0-0.1,1.9-0.7,5.7-1.9c-0.2-0.6-0.7-1.2-1.4-1.7c0.1-0.6,0.6-1.3,1.4-2.1v-0.2l-1.7,0.2h-0.4c-1,0-1.6-0.4-1.6-1.2
						C1197.3,178.1,1199.4,177.6,1203.7,177.1z M1195.2,176.8l-1.2-0.2l0.2,0.9c0.3,0,1.5-0.6,3.6-1.7c3.3-1.2,5.7-2,7.3-2.3
						c-0.1-0.2-0.2-0.4-0.2-0.5h-0.7l-1.2,0.4c0-0.2-0.1-0.4-0.4-0.4h-0.2c-0.5,0.6-1.2,0.9-2.3,0.9c0,0.2-0.6,0.7-1.6,1.4h-0.9
						c-0.3,0-0.5-0.2-0.5-0.7c0.8-1.2,1.2-1.9,1.2-2.1l-0.4-0.2c-1.7,0.7-2.6,1.4-2.6,2.1C1195.5,175.1,1195.4,175.9,1195.2,176.8z
						 M1195.3,167.2l0.2,1.2c1.4-0.2,2.1-0.4,2.2-0.4c0.1,0.1,0.5,0.2,1,0.2l0.4-0.5c-0.9-0.5-1.4-0.9-1.4-1L1195.3,167.2z
						 M1195.7,170.3v1.4c0.9-0.1,1.4-0.3,1.4-0.5V171c0-0.1-0.1-0.2-0.2-0.2l0.3-0.9h-0.2C1196.2,170.2,1195.7,170.3,1195.7,170.3z
						 M1203.7,170.9c-0.8-0.4-1.3-0.5-1.4-0.5c0,0.4-0.2,0.8-0.5,1.4h0.3c0.4-0.2,0.7-0.4,1-0.4h0.5c0.5,0,1.1,0.2,1.9,0.5V170h-0.2
						C1205,170.2,1204.5,170.5,1203.7,170.9z"/>
					<path class="st5" d="M1226.4,167.2h0.7c0.3,1.2,0.6,2.6,0.7,4.2h0.5c0.4,0,0.9-0.2,1.4-0.7h0.2l2.1,1.6v0.7l-0.7,0.7h0.2
						c2.1-0.3,4.2-1,6.4-1.9c-1.2-2-1.7-3.2-1.7-3.6h0.2c1.1,0,2.4,1,4,2.9c1-0.2,1.6-0.4,1.9-0.4c1.2,0.4,1.7,0.9,1.7,1.6
						c0,0.2-0.1,0.4-0.4,0.4h-0.3c-0.1,0-0.2-0.1-0.2-0.2c-2.5,0.8-3.8,1.4-3.8,1.6c-0.2,0.8-0.5,1.3-1,1.7c3.5-0.9,5.5-1.5,5.9-1.7
						c0.2,0,0.9,0.2,2.3,0.5v0.5c0,0.4-1.2,0.8-3.6,1.4c-0.6,2.7-1.3,4.7-1.9,6.2c0.1,0,1.4,1.3,3.8,3.8c1.4,0.6,2.5,0.9,3.5,1
						l0.3-0.2l0.4,0.2c0,0.1-0.1,0.2-0.2,0.2l0.2,0.9c0,0.2-0.1,0.3-0.4,0.3h-3.3c-1.6,0-3.3-1.2-5.2-3.6l-0.5-0.4h-0.2
						c-2.5,2.3-4.4,3.5-5.7,3.5c-0.9-0.2-1.3-0.3-1.4-0.3v-0.2l0.2-0.3c-0.2-0.1-0.5-0.2-0.9-0.2v-0.2c2.2,0,4.3-1.4,6.4-4.3
						c0-0.7-0.9-1.9-2.6-3.5c-1.6,1.8-2.8,2.8-3.6,2.8c0-0.2-1.1-0.5-3.3-0.8c0-0.1-0.1-0.2-0.2-0.2c-0.4,4.2-0.6,7-0.9,8.3
						c-0.1,0-0.3,0.1-0.5,0.2c-1.4,0-2.1-0.9-2.1-2.8c-0.1-1.4-0.2-2.2-0.2-2.3c0.6,0,0.9-0.7,0.9-2.1h-0.5
						c-1.6,1.7-2.6,2.6-3.1,2.6c-0.4,0-0.8-0.4-1.2-1.2c1.6-2.7,3.1-4.8,4.5-6.2c0.2,0,0.4-0.3,0.4-0.9v-0.7c0-0.2-0.1-0.3-0.4-0.3
						l-2.6,0.5c-1.7-0.3-2.6-0.8-2.6-1.6c0-1.2,1.3-1.7,3.8-1.7c1.2-0.4,1.7-1,1.7-1.7v-1.9C1225.4,168.3,1225.8,167.6,1226.4,167.2
						z M1228.2,174.7v4.3h0.8c0.7-0.1,1.2-0.2,1.7-0.2c0,0.5,0.3,0.9,1,1.4c0-0.2,1.2-1.9,3.5-5c-0.5,0.5-1.5,0.8-3,0.8
						c-0.8,0-1.3-0.6-1.6-1.7l0.4-0.7C1230.4,174,1229.4,174.4,1228.2,174.7z M1236.5,178.2c0.1,0,1,0.8,2.6,2.4l1-3.6l-1.6,0.3
						c-0.6-0.1-0.8-0.3-0.8-0.5l0.2-0.3h-0.4C1236.9,177,1236.5,177.6,1236.5,178.2z"/>
					<path class="st5" d="M1255.8,165.7c3.1,1.1,4.6,2.2,4.6,3.4v0.4l-1,0.3c-2.9-1-4.3-2.2-4.3-3.6L1255.8,165.7z M1262.2,172.1
						v0.5c0,0.3-0.9,2.1-2.6,5.7c0,0.7-0.6,1.5-1.9,2.4h-0.7c-1.2-0.7-1.7-2.2-1.7-4.3c0-0.8,0.5-1.4,1.4-1.9
						c0.4,0.8,0.5,1.4,0.5,1.7h0.2C1260,173.4,1261.6,172.1,1262.2,172.1z M1264.6,161.9c1.1,0,1.7,0.9,1.9,2.7v0.5l6.4-1.7h1.5
						c0.8,0,1.3,0.5,1.5,1.4h0.2v0.3c-2.3,2.3-4.3,3.7-5.8,4.3l-0.5,0.7l0.2,0.4c0.1,0,0.2-0.1,0.2-0.2c1.5,0.1,4,1.3,7.5,3.4
						c0.2,0.6,0.4,1,0.4,1c-0.1,0.7-0.3,1-0.5,1l-1.2-0.2v0.2c-1.5-0.4-3.4-1.5-5.6-3.3c-1.1-0.5-1.8-0.7-2.2-0.7
						c0,0.4-0.7,1.2-2.1,2.4c1.1-0.1,2-0.2,2.6-0.2c0.9,0,1.6,0.7,1.9,2.2l-0.1,0.4c0.2,0.9,0.6,4,1,9.3c0.1,0,0.2,0.1,0.2,0.4
						l-0.2,0.8l0.2,0.9c0,0.7-0.4,1-1.2,1c0-0.1-0.1-0.2-0.2-0.2v0.3h-0.5c0-0.3-0.2-0.7-0.7-1.4v-0.2h-0.5c0,0.5-0.2,1.1-0.7,1.7
						v0.2l0.3-0.2h0.2c0.6,0,1.4,0.6,2.4,1.7c1.3,1.1,1.9,2,1.9,2.8v0.3c-0.2,0.5-0.6,0.7-1.2,0.7h-0.2c-0.9,0-2.4-1.4-4.6-4.3
						c-1.3,1.7-2.5,2.7-3.6,2.9h-0.5c-0.2,0-0.4-0.2-0.7-0.7c0-0.2,0.6-0.8,1.9-1.9c1.3-1.6,1.9-2.6,1.9-2.9
						c-2.3,0.9-3.8,1.3-4.6,1.3c0-0.1-0.1-0.2-0.2-0.2v0.2c-1.1-0.4-1.7-1.1-1.7-2.2v-0.2c0.3-0.6,0.8-1.2,1.7-1.9h0.2l0.2,1v1.2
						c0.7-0.2,1.2-0.4,1.4-0.4c-0.6-0.4-0.8-0.9-0.8-1.4l0.2-1.7c-0.2,0-0.3-0.2-0.5-0.5v-0.3c0.6-0.4,0.8-1.2,0.8-2.4h-0.2
						c-0.4,0-0.7-0.2-0.7-0.5v-0.2l0.2-0.3c-0.2,0-0.4-0.1-0.4-0.3v-0.2c0.3-0.6,0.8-0.9,1.4-0.9v-0.2l0.2-1.7l-1.6-0.3
						c0-0.4,0.8-1.2,2.4-2.4c2.3-2.4,3.7-4.6,4.3-6.5c-0.1-0.2-0.2-0.4-0.2-0.7c-0.8,0.1-1.3,0.2-1.6,0.3c-0.2-0.1-0.4-0.2-0.5-0.2
						c-0.9,1.7-1.7,2.6-2.4,2.6l-0.5-0.7c0.6-2.2,0.9-3.6,0.9-4.1v-0.5l-0.2-1.7C1264,162.1,1264.2,162,1264.6,161.9z M1263.9,186.4
						h0.3c1.8-0.6,3-0.8,3.5-0.8c0,0.1,0.1,0.2,0.2,0.2c0-0.1,0.1-0.4,0.2-1h0.2c0.5,0.5,0.8,0.7,0.8,0.7h0.2l-0.4-3.4
						c-0.8,0.6-2.1,1.3-3.9,2.1L1263.9,186.4z M1265.1,175l-0.2,0.4c0.1,1.6,0.2,2.5,0.3,2.6c1.3-0.1,1.9-0.2,1.9-0.4
						c1,0.4,1.7,0.7,1.9,0.7v-0.2l-0.2-2.7c-0.6,0-1.4,0.1-2.4,0.2C1265.7,175.1,1265.3,175,1265.1,175z M1264.9,180.6v0.8
						c0.5,0,1.7-0.4,3.4-1.2c0.2,0.1,0.4,0.2,0.5,0.2v-1.9c-0.5,0.7-1.8,1.3-3.8,1.7L1264.9,180.6z M1270.1,166l0.5,1.2
						c0.9-0.5,1.4-0.9,1.5-1.2v-0.2h-0.1C1271,166,1270.3,166,1270.1,166z"/>
					<path class="st5" d="M1297.3,169.4c0.7,0.2,1.1,0.5,1.1,0.7v0.5c-0.1,0.3-0.5,0.5-1.1,0.5c0,0.2,0.4,0.4,1.2,0.7
						c4.7-1.3,7.4-1.9,8-1.9h0.7c0.2,0,0.3,0.1,0.3,0.3v0.4c-0.5,1.1-0.8,2.4-1,3.8c0,0.1,0.1,0.2,0.2,0.2l-0.2,0.9v0.7l0.7,0.5v0.2
						c-0.2,0.6-0.4,0.9-0.5,0.9c0,2.4,1.3,5,3.8,7.8h0.2c0.7-2.7,1.1-4,1.4-4c0.5,0,0.7,1,0.7,2.9v2.3c0,0.6-0.2,0.9-0.5,1h-0.2
						c-1.3-0.2-2.7-1-4-2.4c-1.4-1.6-2.3-3.8-2.8-6.8c-2.1,0.9-3.2,1.4-3.5,1.4v3.8l-0.2,0.4c0.2,0,0.3,0.2,0.5,0.5v0.9h-0.4v0.2
						c0.2,0.3,0.4,0.5,0.4,0.7c-0.1,1.7-0.3,2.6-0.7,2.6l-1.4-1.2c-0.2-1-0.3-2-0.3-3.1l0.3-0.7c-0.1-1.2-0.2-2.1-0.2-2.8v-0.5
						l-0.9,0.2h-1.4c-0.1,0-0.4-0.3-0.9-0.9v-0.7l3.1-0.5v-5.4l-1.7,0.4c-0.7,0-1.3-0.8-1.7-2.3h-0.3c-4,1.6-6.9,2.4-8.7,2.4
						c-1.7-0.4-2.6-0.7-2.6-0.8V173h0.2C1286.2,172.9,1290.3,171.7,1297.3,169.4z M1295.4,174.1c0.3,0.6,0.5,1,0.5,1.2
						c-1.2,0.8-3.5,1.4-6.8,1.9c-0.8-0.2-1.5-0.3-2.3-0.3c0-0.5,2.8-1.4,8.3-2.8L1295.4,174.1L1295.4,174.1z M1294.7,176.9
						c0.5,0.5,0.7,0.9,0.7,1.4c-3,1.3-4.9,1.9-5.9,1.9c-1.2-0.6-1.9-0.8-2.1-0.8c0-0.4,1-0.6,3-0.9
						C1292.8,177.4,1294.2,176.9,1294.7,176.9z M1294.9,180.1c0.9,0,1.5,0.9,1.9,2.6l-1.4,2.4l0.2,1c-1.1,1.2-2,1.7-2.4,1.7h-0.5
						c-0.2,0-0.6-0.4-1.2-1.2v-0.2c0-0.4,0.6-1.4,1.7-2.9c0.1-0.2,0.2-0.4,0.2-0.7l-0.4-0.2c-0.8,0.2-1.3,0.4-1.4,0.4
						s-0.4-0.1-1-0.2v0.2c0,0.4,0.2,1.7,0.5,4l-0.5,0.4c-1.4,0-2.3-2.1-2.6-6.2l0.4-0.2c0.4,0,0.9,0.2,1.6,0.7
						C1292,180.7,1293.7,180.1,1294.9,180.1z M1290.7,167.8h0.2c1.2,0,2.1,0.5,2.8,1.4v0.2c0,0.2-0.2,0.4-0.5,0.5h-0.2
						C1291.5,169.7,1290.7,169,1290.7,167.8z M1301,173.1v0.3c0.6,0,0.9,0.7,0.9,2.1v0.5l-0.2,0.9c0.1,0.2,0.2,0.5,0.2,0.9v0.5
						c1.2-0.2,2.3-0.6,3.3-1.2c0-0.3-0.2-0.5-0.5-0.5v-0.4c0.5,0,0.7-1.6,0.7-4.7c0.1,0,0.2-0.1,0.2-0.2h-0.2
						C1303,171.9,1301.6,172.5,1301,173.1z"/>
					<path class="st5" d="M1314.1,191.7c-0.1,0.2-0.3,0.3-0.4,0.4c-0.2,0.1-0.4,0.1-0.7-0.1c-0.2-0.2-0.4-0.4-0.4-0.6
						c-0.1-0.4,0.1-0.8,0.4-1.5c4.1-8.1,7.3-14.2,9.3-18.3c1.1-2.2,2.4-3.2,3.7-2.9C1323.3,176.9,1319.3,184.6,1314.1,191.7z"/>
					<path class="st5" d="M1329.1,165.7c3.1,1.1,4.6,2.2,4.6,3.4v0.4l-1,0.3c-2.9-1-4.3-2.2-4.3-3.6L1329.1,165.7z M1335.4,172.1
						v0.5c0,0.3-0.9,2.1-2.6,5.7c0,0.7-0.6,1.5-1.9,2.4h-0.7c-1.2-0.7-1.7-2.2-1.7-4.3c0-0.8,0.5-1.4,1.4-1.9
						c0.4,0.8,0.5,1.4,0.5,1.7h0.2C1333.2,173.4,1334.8,172.1,1335.4,172.1z M1337.8,161.9c1.1,0,1.7,0.9,1.9,2.7v0.5l6.4-1.7h1.5
						c0.8,0,1.3,0.5,1.5,1.4h0.2v0.3c-2.3,2.3-4.3,3.7-5.8,4.3l-0.5,0.8l0.2,0.4c0.1,0,0.2-0.1,0.2-0.2c1.5,0.1,4,1.3,7.5,3.4
						c0.2,0.6,0.4,1,0.4,1c-0.1,0.7-0.3,1-0.5,1l-1.2-0.2v0.2c-1.5-0.4-3.4-1.5-5.6-3.3c-1.1-0.5-1.8-0.7-2.2-0.7
						c0,0.4-0.7,1.2-2.1,2.4c1.1-0.1,2-0.2,2.6-0.2c0.9,0,1.6,0.7,1.9,2.2l-0.1,0.4c0.2,0.9,0.6,4,1,9.3c0.1,0,0.2,0.1,0.2,0.4
						l-0.2,0.8l0.2,0.9c0,0.7-0.4,1-1.2,1c0-0.1-0.1-0.2-0.2-0.2v0.3h-0.5c0-0.3-0.2-0.7-0.7-1.4v-0.2h-0.2c0,0.5-0.2,1.1-0.7,1.7
						v0.2l0.3-0.2h0.2c0.6,0,1.4,0.6,2.4,1.7c1.3,1.1,1.9,2,1.9,2.8v0.3c-0.2,0.5-0.6,0.7-1.2,0.7h-0.4c-0.9,0-2.4-1.4-4.6-4.3
						c-1.3,1.7-2.5,2.7-3.6,2.9h-0.5c-0.2,0-0.4-0.2-0.7-0.7c0-0.2,0.6-0.8,1.9-1.9c1.3-1.6,1.9-2.6,1.9-2.9
						c-2.3,0.9-3.8,1.3-4.6,1.3c0-0.1-0.1-0.2-0.2-0.2v0.2c-1.1-0.4-1.7-1.1-1.7-2.2v-0.2c0.3-0.6,0.8-1.2,1.7-1.9h0.2l0.2,1v1.2
						c0.7-0.2,1.2-0.4,1.4-0.4c-0.6-0.4-0.8-0.9-0.8-1.4l0.2-1.7c-0.2,0-0.3-0.2-0.5-0.5v-0.3c0.6-0.4,0.8-1.2,0.8-2.4h-0.2
						c-0.4,0-0.7-0.2-0.7-0.5v-0.2l0.2-0.3c-0.2,0-0.4-0.1-0.4-0.3v-0.2c0.3-0.6,0.8-0.9,1.4-0.9v-0.2l0.2-1.7l-1.6-0.3
						c0-0.4,0.8-1.2,2.4-2.4c2.3-2.4,3.7-4.6,4.3-6.5c-0.1-0.2-0.2-0.4-0.2-0.7c-0.8,0.1-1.3,0.2-1.6,0.3c-0.2-0.1-0.4-0.2-0.5-0.2
						c-0.9,1.7-1.7,2.6-2.4,2.6l-0.5-0.7c0.6-2.2,0.9-3.6,0.9-4.1v-0.5l-0.2-1.7C1337.2,162.1,1337.4,162,1337.8,161.9z
						 M1337.1,186.4h0.3c1.8-0.6,3-0.8,3.5-0.8c0,0.1,0.1,0.2,0.2,0.2c0-0.1,0.1-0.4,0.2-1h0.2c0.5,0.5,0.8,0.7,0.8,0.7h0.2
						l-0.4-3.4c-0.8,0.6-2.1,1.3-3.9,2.1L1337.1,186.4z M1338.3,175l-0.2,0.4c0.1,1.6,0.2,2.5,0.3,2.6c1.3-0.1,1.9-0.2,1.9-0.4
						c1,0.4,1.7,0.7,1.9,0.7v-0.2l-0.2-2.7c-0.6,0-1.4,0.1-2.4,0.2C1338.9,175.1,1338.5,175,1338.3,175z M1338.2,180.6v0.8
						c0.5,0,1.7-0.4,3.4-1.2c0.2,0.1,0.4,0.2,0.5,0.2v-1.9c-0.5,0.7-1.8,1.3-3.8,1.7L1338.2,180.6z M1343.3,166l0.5,1.2
						c0.9-0.5,1.4-0.9,1.5-1.2v-0.2h-0.2C1344.2,166,1343.6,166,1343.3,166z"/>
					<path class="st5" d="M1358,173.6l3.8,1.6c0.6,0.6,0.9,1.2,0.9,1.7c0,0.4-0.4,1.4-1.2,2.8c-0.1,0.6-0.2,1.1-0.2,1.6
						c0.1,0.2,0.2,0.4,0.2,0.5h0.2c3-3.1,4.8-5.3,5.4-6.4h0.3v0.7c0,1.1-1.8,4.7-5.4,10.7c-0.2,0-0.4,0.1-0.7,0.4
						c-1.3-0.3-1.9-0.8-1.9-1.6c-0.1-0.8-0.2-1.3-0.2-1.6c0.3,0,0.7-1.3,1.2-4c0.2,0,0.3-0.9,0.3-2.6c-0.1-0.2-0.2-0.4-0.2-0.5h-1.9
						c-1,0-1.5-0.9-1.7-2.6v-0.2C1357.4,173.7,1357.8,173.6,1358,173.6z M1359.6,165.8c1.7,0,3.3,0.9,5,2.6c-0.1,0.7-0.3,1-0.5,1
						h-0.3c-2.4,0-3.9-1-4.5-2.9h-0.3v-0.3C1359,165.9,1359.2,165.8,1359.6,165.8z M1378.8,165.4c0.5,0,0.8,0.2,1.1,0.7v0.5
						c0,0.3-0.3,0.5-0.9,0.5v0.7c0.3,0.5,0.5,1,0.5,1.4l-0.3,0.7h0.2l-0.2,0.3v0.7c3-0.7,5-1,6.2-1c0.8,0,1.3,0.7,1.6,2.1
						c0.1,0,0.2,0.1,0.2,0.4h-0.2c-0.5,1.7-2.2,3.6-5,5.7c-0.9,0.7-1.6,1-2.1,1v0.2c0,2.3-0.1,3.5-0.4,3.5c0,0.1,0.1,0.2,0.2,0.2
						c-0.1,1.2-0.2,2-0.2,2.6v2.4c0,0.6,0.1,1.5,0.2,2.4c-0.2,0.5-0.4,0.8-0.9,1h-0.2c-0.2,0-0.4-0.2-0.4-0.5l-0.3,0.2h-0.2
						c-2.5-2.1-3.8-3.3-4-3.8c-0.6,0.4-1.2,0.5-1.7,0.5h-0.2c-0.2,0-0.3-0.2-0.5-0.5v-0.4c2.4-2.8,3.9-4.8,4.3-6.1
						c0.2-0.1,0.4-0.2,0.7-0.2c0.5,0.1,0.7,0.5,0.7,1.1v1.7c0,0.1-0.8,1.1-2.4,2.9c0,0.2,0.9,0.8,2.6,1.7v-0.2
						c0.1-3.6,0.3-6.4,0.7-8.5h-0.2c-0.2,0-1.2,0.3-3.1,1c-0.7-0.4-1-0.7-1-0.9l0.2-0.4c-0.3,0-1-0.8-1.9-2.3
						c-0.5,1.1-1,1.8-1.6,2.1l-1.9,2.8v0.2l0.5-0.4h0.2c-1,1.8-2.6,3.5-4.7,5.2l-0.9-0.2c0-0.3,1.6-3.2,4.8-8.8
						c1.9-3.7,3.1-6.7,3.8-9v-0.2l-0.8,0.2h-0.9c-0.3,0-1-0.2-2.3-0.5v-0.9c0-0.4,1.7-0.8,5-1c0.6-0.3,0.9-0.6,0.9-0.7l0.3,0.2
						L1378.8,165.4z M1373.4,173c0,0.4-0.1,0.8-0.3,1.2c0.2,0.5,0.3,0.9,0.3,1.2h0.2v-0.7c0-0.3-0.1-0.5-0.2-0.7
						c0.1-0.2,0.2-0.4,0.2-0.7v-0.4h-0.2V173z M1373.6,172.5v0.4h0.2c2.2-1.1,3.3-2.5,3.3-4.2c0.2,0,0.4-0.4,0.4-1.2
						c-2,0.3-3,1.2-3,2.4C1373.9,171,1373.6,171.8,1373.6,172.5z M1374.5,175.6v0.9l0.4,0.5v0.4c0,0.1-0.1,0.2-0.2,0.2
						c0.1,0.2,0.2,0.4,0.2,0.7c0.9,0,2.5-0.6,4.8-1.9c1.2-0.1,1.7-0.4,1.7-0.7v-0.2l-4.3,0.7h-0.5c-0.9-0.4-1.4-0.7-1.4-0.9v-0.7
						c0-0.4,1.4-0.8,4.3-1c1.7,0.1,2.6,0.5,2.6,1.2c1.2-1,1.9-2,2.1-2.8h-0.2c-5.3,1.1-8.2,1.8-8.8,2.3
						C1374.7,174.7,1374.5,175.2,1374.5,175.6z M1381.9,181.7h0.2c1.6,0,3.1,1.3,4.5,4v0.2c0,0.1-0.1,0.3-0.2,0.5v0.5
						c-0.3,0-0.5,0.1-0.5,0.2c-0.7,0-1.9-1.1-3.5-3.3c-0.1-0.7-0.6-1.3-1.4-1.9h0.5l0.4,0.2V181.7z"/>
				</g>
			</g>
			<line class="st12" x1="1131" y1="180.7" x2="1179" y2="180.7"/>
			<line class="st12" x1="1100" y1="101.3" x2="1129.7" y2="180.8"/>
		</g>
	</g>
</g>
</svg>
