<?xml version="1.0" encoding="utf-8"?>
<!-- Generator: Adobe Illustrator 19.0.0, SVG Export Plug-In . SVG Version: 6.00 Build 0)  -->
<svg version="1.1" id="Layer_1" xmlns="http://www.w3.org/2000/svg" xmlns:xlink="http://www.w3.org/1999/xlink" x="0px" y="0px"
	 viewBox="0 0 209.8 65.2" style="enable-background:new 0 0 209.8 65.2;" xml:space="preserve">
<style type="text/css">
	.st0{fill:#FBEA26;}
	.st1{fill:#BF1C2C;}
	.st2{fill:#D1D730;}
	.st3{fill:#F3B244;}
	.st4{fill:#FFFFFF;}
</style>
<g id="XMLID_77_">	<g id="XMLID_141_">		<g id="XMLID_149_">			<path id="XMLID_150_" class="st0" d="M35,25.7l-8.2,20.6l-8.8,4.3c0,0-2.4,1.6-3.1,2.6c-0.6,1-1.5,3.2-1.7,3.8				c-0.2,0.5-0.8,3.2-0.8,3.5L8,64.3L0.1,44.9l16.4-4.6l4.4-10.6l0.5-4.7L35,25.7z"/>		</g>		<g id="XMLID_147_">			<polygon id="XMLID_148_" class="st1" points="63.6,15.9 56.4,32.5 13.1,28.5 13.1,36.5 0.2,35.2 1.9,22.8 48.5,21.7 49,10.2 							"/>		</g>		<g id="XMLID_144_">			<circle id="XMLID_146_" class="st2" cx="30.3" cy="11.6" r="10.6"/>			<path id="XMLID_145_" class="st2" d="M44.9,5.7c0.4,0.8,0,1.8-0.8,2.1l-3.9,1.7c-0.8,0.4-1.8,0-2.1-0.8l0,0C37.7,8,38,7,38.9,6.6				l3.9-1.7C43.5,4.5,44.5,4.9,44.9,5.7L44.9,5.7z"/>		</g>		<g id="XMLID_142_">			<polygon id="XMLID_143_" class="st3" points="62.6,49.4 46.6,62.5 22.7,22.2 36.7,21.9 41.2,31.2 52,45.8 60.1,44.1 			"/>		</g>	</g>	<g id="XMLID_122_">		<path id="XMLID_138_" class="st4" d="M84.8,9.1h0.3c0.7,0.6,1.5,2,2.3,4.4l4.4-0.4c1.5,0.4,2.2,1.1,2.2,1.9			c-0.6,0-1.1-0.1-1.6-0.3c0,0.2-0.1,0.3-0.3,0.3c-0.1-0.3-0.2-0.4-0.3-0.4c-0.5,0.3-0.8,0.4-1,0.4c0-0.2-0.1-0.3-0.3-0.3V15			c-0.3-0.2-0.6-0.3-0.9-0.3c-0.3,0-0.7,0.1-1,0.4C88.4,15,88.3,15,88.2,15c0,0.1,0,0.1-0.1,0.1v-0.4h-0.3c-0.2,0-0.3,0.1-0.3,0.3			v0.6c0,2,0.6,4.8,1.9,8.5h0.1c1.1-1.7,1.9-2.5,2.7-2.5c1,0.3,1.5,0.8,1.5,1.5h-0.1c-0.2,0.1-0.3,0.1-0.4,0.1v0.2l0.2,0.3			c-1.2,0.8-2.2,2-2.8,3.7c0.4,0.7,1,2.4,1.8,5.3l0.3,0.1h0.3l0.7-2.8v-0.9c0-0.5-0.1-1.3-0.2-2.5c0.7,0.4,1.2,0.6,1.5,0.6			c-0.6,2.2-0.9,3.5-0.9,3.8c0.1,0.5,0.1,0.8,0.1,0.9l-0.3,0.9l0.3,0.1c-0.2,1.1-0.3,2.2-0.3,3.4c-0.2,0-0.3,0-0.3,0.1			c-1.1,0-2.3-2.8-3.7-8.4h-0.1c-1.1,0.9-1.6,1.7-1.6,2.3c-0.5,0-1-0.7-1.5-2.1c1.6-1.4,2.3-2.2,2.3-2.5c-1.2-3.4-1.8-5.3-1.8-5.9			c0.1,0,0.2,0,0.2-0.1L87,20h-0.1c-0.5-3.3-0.9-5-1.2-5h-1c-0.2,0-0.3,0.1-0.3,0.4c-0.2,0-0.3-0.1-0.3-0.3c-3,0.4-4.6,0.8-4.6,1.3			c-0.6,2.3-0.9,3.7-0.9,4.3h0.1c1.9-0.7,3.2-1.2,3.8-1.5c1,0,1.7,0.8,2.2,2.5c0,0.1-0.1,0.2-0.2,0.2c0,0.1,0.1,0.1,0.2,0.1			l-0.5,2.8c0.1,0.2,0.2,0.4,0.2,0.6c-0.9,4-1.5,6-1.8,6.2h-0.4c-0.2,0-0.6-0.5-1.5-1.6c0.1-0.3,0.2-0.4,0.3-0.4			c-0.1-0.3-0.2-0.4-0.3-0.4h-0.7l-0.1-1h0.1c0.3,0,0.7,0.1,1,0.4h0.7c0.7-3,1-5.5,1-7.5v-0.4l-0.1-0.3c-2.3,1.4-3.6,2.1-3.8,2.1			h-0.7l-0.5,3.1c0.1,0.2,0.2,0.3,0.2,0.4h-0.2c0,0.1,0.1,0.1,0.2,0.1c-0.1,4-0.3,6-0.4,6c0.1,0.2,0.2,0.4,0.2,0.6H77			c0-0.4-0.5-0.9-1.5-1.5v-0.4c0-0.2,0.1-0.6,0.4-1.3v-1h0.2c-0.2-0.3-0.3-0.6-0.3-0.7c0.3-4.4,0.7-7.4,1.2-8.8			c0.2-1.5,0.4-2.3,0.6-2.5c-0.9-0.5-1.3-0.9-1.3-1v-0.2c4.5-1.2,7.4-1.8,8.8-1.8v0.1c0,0.2,0,0.3,0.1,0.3c0.3-0.1,0.4-0.2,0.4-0.3			L84.8,9.1z M92.9,7.9H93c1,1,1.7,2.3,2.1,3.7c-0.1,0-0.2,0-0.4,0.1c-0.7-1.1-1.4-2.3-2.1-3.7L92.9,7.9z"/>		<path id="XMLID_135_" class="st4" d="M108.7,17c1,0,1.5,0.4,1.5,1.2c-1,0.5-1.6,0.7-2.1,0.7c0,0.1,0.1,0.3,0.4,0.4l-0.1,0.7v3.4			l-0.2,0.7c0.2,0,0.3,0.1,0.3,0.3v0.4h-0.4c0.1,0.4,0.1,0.7,0.1,1h0.6c0.2,0,0.8-0.2,1.9-0.7v0.7l0.7-0.2c0,1.1-1,1.8-3.1,2.3			c-1.2,0.9-1.8,1.5-1.8,1.6c-0.5,0-1-0.3-1.8-0.9v-0.1c0-0.1,0-0.2,0.1-0.2c0-0.2-0.3-0.6-1-1.2c0.2-0.1,0.3-0.2,0.4-0.2l1.3,0.2			c0.7-0.4,1.2-0.6,1.5-0.6l-0.1-0.3c0-0.1,0-0.1,0.1-0.1l-0.1-0.3c0-0.1,0-0.4,0.1-0.9c-0.1-0.2-0.1-0.3-0.1-0.4l0.1-0.3			c-0.4-1.1-0.6-2.6-0.6-4.4v-0.6c-0.4,0-0.9,0.1-1.5,0.3c-0.2-0.1-0.3-0.2-0.4-0.2v0.2c-1.7-0.5-2.5-0.9-2.5-1v-0.2			c0.2-0.2,0.3-0.4,0.3-0.6c0.3,0.1,0.4,0.2,0.4,0.3C106.1,17.4,108,17,108.7,17z M117.8,13c0.4,0.4,1,0.6,1.8,0.9V14			c-0.4,1.8-0.6,2.8-0.6,3.1c0.1,0,0.2,0.1,0.2,0.2c0.9-0.3,1.9-0.5,3.1-0.5h0.1c1.3,0,1.9,0.6,1.9,1.8v1c0,2.4-0.7,5.2-2.2,8.4			c-0.7,1.2-1.3,1.8-1.9,1.8l-1.5-2.2l0.2-0.9h0.3l0.4,0.3l0.3-0.1l0.9,0.1c1.1-2.5,1.6-4.9,1.6-7v-1.5l-0.4-0.6			c-2.5,0.2-3.7,1-3.7,2.3c-1.4,4.6-2.9,7.9-4.4,10.1c-0.7,0.5-1,0.8-1,1h-0.4c0-0.6-0.2-1.1-0.7-1.3v-0.1c2.3-2.4,4-5.9,5.1-10.6			c-1,0.6-2.3,1.1-3.8,1.5c-1.1-0.4-1.6-1-1.6-1.8l0.3-0.4c0.7,0.4,1.2,0.6,1.5,0.6c0.5-0.3,1.8-0.8,3.8-1.5			c0.5-0.4,0.7-1.4,0.7-2.9c-0.1-0.2-0.1-0.3-0.1-0.4v-0.6h-0.2v-0.3C117.4,13.3,117.5,13.2,117.8,13z"/>		<path id="XMLID_128_" class="st4" d="M138.8,10.5c1.4,0.2,2.1,0.9,2.1,1.9c-1.9,3.9-2.8,5.9-2.9,6l0.2,0.3			c-2.4,3.6-3.6,5.5-3.7,5.7c-0.3,0-0.7-0.8-1.2-2.5c1,0,2.1-1.7,3.1-5.1h-0.1c-1.7,0.9-2.6,1.3-2.9,1.3c-1.3-0.2-1.9-0.5-1.9-0.9			V17c0.7,0,2.4-0.7,5.1-2.2c1.1,0,1.8-0.8,2.1-2.5h-0.7c-0.1,0-0.8,0.5-1.9,1.5c-1.1-0.1-2-0.3-2.6-0.6v-0.4L138.8,10.5z			 M143.1,27.3h1.5c1.1,0.1,1.6,0.5,1.6,1c-0.8,0.6-1.2,1.1-1.2,1.6v0.4l1.8-0.2c1,0.1,1.8,0.2,2.3,0.2v0.1			c-0.1,0.2-0.1,0.4-0.1,0.6l0.3,0.1c0-0.6,0.1-0.9,0.3-0.9c0.1,0.4,0.3,0.6,0.4,0.6v-0.3h0.4l-0.1,0.7c0.1,0,0.1,0,0.1,0.1			l-0.9,0.4v-0.4h-0.3c0,0.4-1.9,0.8-5.7,1c-0.2-0.1-0.3-0.2-0.4-0.2c-2.7,0.6-4.4,1.1-5,1.5c-0.6,0-1.6-0.7-2.8-2.1v-0.2			c0-0.2,0.1-0.3,0.3-0.3c0.5,0.3,0.9,0.4,1.2,0.4h0.3c0.4,0,1.2-0.1,2.3-0.3c-0.6-2.1-0.9-3.5-0.9-4.1h0.1c1.3,0.4,1.9,0.8,1.9,1.3			c-0.1,1-0.2,1.6-0.2,1.8c0.2,0.4,0.4,0.7,0.6,0.7c1,0,1.7-0.9,2.1-2.8V27.3z M144.8,20.2c1,0.4,1.6,0.8,1.9,1.2V22			c0,0.8-0.3,1.5-1,1.9c0-0.1,0-0.2-0.1-0.2v0.7c0,0.2,0.1,0.3,0.4,0.3c-0.2,0.4-0.3,0.7-0.3,0.9h-1.2c-1,0-2.1,0.4-3.5,1.2h-0.1			c-1.2,0-1.9-1.3-2.3-4c-0.1-1-0.3-1.7-0.6-1.9v-0.3l0.2-0.3c1.2,0,1.8,0.5,1.8,1.6C141.5,20.8,143.1,20.2,144.8,20.2z M143.7,17			c0.6,0.2,0.9,0.4,1,0.7c0,0.6-1.5,0.9-4.6,1h-1.6v-0.3C140.2,17.8,141.9,17.3,143.7,17z M140.3,23.9v0.4l0.6-0.3			c1,0.1,1.7,0.2,2.2,0.2c1.1-0.4,1.6-1.3,1.6-2.6h-0.6C143,21.5,141.7,22.3,140.3,23.9z M147.2,10.5c0.7,0.6,1,0.9,1,1v0.3			c-1.4,0.4-3.2,0.7-5.6,0.9v0.1c0,0.1,0.5,0.6,1.6,1.5l3.1-0.7c0.9,0.3,1.3,0.6,1.3,1.2c-1.3,0.4-2.3,0.6-3.1,0.6			c-0.2-0.1-0.3-0.1-0.4-0.1c0,1,1.2,2.3,3.7,3.9c1.5,0.6,2.2,1.3,2.2,2.1c-0.2,0-0.4,0.1-0.7,0.3c-2.2-0.7-4.1-2.3-5.7-4.8			c-1.2-2.1-1.9-3.2-2.1-3.2c-0.4,0-0.6-0.2-0.6-0.7h-0.3l-0.3,0.1v-0.6C143.7,11.4,145.7,10.8,147.2,10.5z"/>		<path id="XMLID_125_" class="st4" d="M167.7,11c0.6,0.8,1.3,2.4,1.9,5l0.3,0.1c1.9-0.5,2.9-0.9,2.9-1l1,0.2h1.2			c0.3,0.1,0.4,0.5,0.4,1.2c-1,0.8-2.3,1.2-4,1.2c-0.1-0.2-0.1-0.3-0.1-0.4h-0.3c-0.2,0-0.4,0.3-0.6,1l-1-0.1			c-0.6,1.2-1.1,2.7-1.5,4.3c-0.1,0-0.1,0-0.1,0.1l0.3,0.6c-0.2,0.1-0.4,0.1-0.6,0.1l0.1,0.3c0,0.7-1.9,3.6-5.7,8.7			c-1-0.3-2-0.7-2.9-1.2v-0.4c0-0.2,0.4-0.4,1.3-0.6c1.2-0.8,1.8-1.4,1.9-1.9c-0.2-0.3-0.3-0.6-0.3-0.9v-0.4			c0.9-0.3,1.8-1.6,2.5-3.8c1.2-1.7,1.8-2.8,1.8-3.2h-0.1c-2.6,0.9-4.6,1.5-5.9,1.8c-2.1-0.1-3.2-0.4-3.4-1v-0.6l0.6-0.2l0.6,0.3			l9.4-3.5c0.2-0.8,0.3-1.6,0.3-2.3c0-1-0.3-2-0.9-2.8C167.2,11.1,167.4,11,167.7,11z M169.5,22.1c0.9,0,2.1,1.1,3.4,3.4			c0,0.3,1,1.3,2.9,3.1c0.8,1.1,1.7,1.9,2.8,2.2c1.6,1,2.5,1.9,2.8,2.7h-0.2c-3.7-1.1-6.4-2.4-8.1-4c-0.2-1-1.6-3.1-4.1-6.3			l-0.4-0.7L169.5,22.1z"/>		<path id="XMLID_123_" class="st4" d="M193.7,12.3h0.1c1,0.5,1.9,1.6,2.5,3.2c-0.2,0-0.4,0.8-0.7,2.3c-0.1,0-0.1,0.1-0.1,0.2			c0,0.3,0,0.4,0.1,0.4l-0.6,2.8v0.2c0.8,0,2,0.9,3.7,2.6c2.7,1.5,5.3,3.3,7.9,5.4c1.6,1.2,2.5,1.8,2.8,1.8v0.1			c0,0.2-0.1,0.3-0.3,0.3h-0.3c-1.3,0-4.7-1.9-10.1-5.7c0-0.2-0.6-0.8-1.9-1.9l-2.1-2.2c-0.5,0-1.2,1.4-2.1,4.1			c-0.7,0.9-1.2,1.9-1.5,2.9c-1.6,1.7-3.2,2.8-4.8,3.2c-0.8,0-1.3-0.7-1.6-2c0.2-0.3,0.8-0.7,1.8-1.2l0.3,0.2c0-0.3,0.3-0.6,0.9-0.7			l0.6-1l-0.1-0.3c0.2,0,0.8-0.6,1.8-1.8c-0.1,0-0.2-0.1-0.2-0.2l0.6-0.6l-0.1-0.3v-0.3h0.3v-0.3l-0.2-0.3c0.2,0,0.6-0.7,1.2-2.2			c1.1-2.7,1.9-4.9,2.3-6.8c0.1-0.5,0.2-1,0.2-1.5c-0.2,0-0.3-0.1-0.3-0.3V12.3z"/>	</g>	<g id="XMLID_78_">		<path id="XMLID_120_" class="st4" d="M82,45c0.3,0.6,0.4,1.3,0.2,1.9c-0.3,1-1.6,2.2-4,3.7c-0.1-0.3,0-0.6,0.4-1.1			c0-0.1,0.4-0.7,1.2-1.9c0-0.2,0.1-0.4,0.1-0.5c0-0.4,0-0.7-0.2-1.1c-0.2-0.4-0.6-0.4-1.1-0.1c-0.4,0-0.7,0.2-0.9,0.6			c-0.2,0.3-0.3,0.8-0.3,1.3c-0.1,2.6,0.1,5.2,0.8,7.7c0,0.2,0,0.3-0.1,0.5c-0.1,0.1-0.2,0.3-0.4,0.3c-0.4,0.2-0.8,0.2-1.1-0.1			c-0.4-0.3-0.7-1-0.8-2.1c-0.2-1.8-0.3-3.1-0.4-4.1c-0.1-1.1-0.1-1.9,0-2.6c0.1-0.9,0.4-1.7,1-2.2c0.5-0.5,1.1-0.8,1.9-1			c0.6-0.1,1.3-0.2,2.3-0.1C81.2,44,81.7,44.4,82,45z"/>		<path id="XMLID_117_" class="st4" d="M83.9,45.8c0.5-0.7,1-1.2,1.8-1.4c0.8-0.3,1.6-0.2,2.4,0.2c0.4,0.2,0.7,0.4,0.9,0.7			c0.2,0.3,0.3,0.6,0.3,1c-1,1.5-2.3,2.7-4,3.6c0.2,0.4,0.6,0.7,1.1,0.8c0.5,0.2,1,0.2,1.5,0c0.8-0.2,1.8-0.7,2.9-1.5			c-0.2,1.1-0.6,1.8-1.1,2.1c-0.9,0.7-2,1-3.1,1c-1,0-1.9-0.5-2.6-1.5c-0.6-0.9-0.9-1.8-0.8-2.9C83.2,47.1,83.5,46.4,83.9,45.8z			 M87.4,46.8c0.2-0.3,0.1-0.6-0.1-1c-0.2-0.3-0.6-0.5-1-0.5c-0.6,0.7-0.9,1.5-0.9,2.4c0.4,0,0.7-0.1,1-0.3c0.3-0.2,0.5-0.4,0.7-0.7			L87.4,46.8z"/>		<path id="XMLID_115_" class="st4" d="M94,46.1c-0.4,0.5-0.6,1-0.6,1.6c0,0.3,0.1,1.5,0.4,3.5c0.1,0.4-0.1,0.6-0.5,0.8			c-0.4,0.1-0.8,0.1-1-0.2c-0.4-0.4-0.5-1.2-0.5-2.3c0-0.4,0-0.9,0.1-1.7c0-0.8,0.1-1.3,0.1-1.7c0-0.3,0.1-0.6,0.3-0.9			c0.2-0.3,0.4-0.4,0.6-0.2c0.2,0.1,0.5,0.1,0.8,0c0.1,0,0.2-0.1,0.4-0.2c0.2-0.1,0.3-0.2,0.4-0.2c0.3-0.1,0.6-0.1,0.8,0.1			c0.3,0.2,0.4,0.4,0.2,0.6C94.8,45.4,94.4,45.6,94,46.1z"/>		<path id="XMLID_113_" class="st4" d="M97.9,43.7c0,0,0.2,0,0.6-0.1c0.3-0.1,0.6,0,0.9,0.1c0.3,0.1,0.5,0.4,0.5,0.6			c-0.5,0.2-1,0.4-1.4,0.8c-0.4,0.3-0.8,0.7-1,1.2c-0.2,0.3-0.2,0.6-0.1,0.8c0.1,0.1,0.2,0.3,0.4,0.4c0.7,0.5,1.3,0.9,1.7,1.2			c0.2,0.2,0.4,0.2,0.5,0.2c0.1,0,0.3,0,0.4-0.1c0.1-0.1,0.2-0.2,0.4-0.3c0.2-0.2,0.3-0.3,0.4-0.3c0.1-0.1,0.3-0.1,0.4-0.1			c0.1,0.2,0,0.5-0.3,0.7l-0.8,0.5c-0.2,0.2-0.5,0.4-0.8,0.8c-0.3,0.4-0.6,0.7-0.7,0.8c-0.4,0.4-0.9,0.7-1.5,0.8			c-0.3,0.1-0.5,0.1-0.8,0c-0.3-0.1-0.5-0.3-0.5-0.5c0.8-0.2,1.5-0.6,2.2-1.1c0.2-0.1,0.3-0.3,0.3-0.6c0-0.2-0.1-0.4-0.2-0.6			c-0.2-0.2-0.6-0.5-1.1-0.7c-0.6-0.2-0.9-0.5-1.1-0.7c-0.2-0.2-0.3-0.5-0.3-0.8c0-0.3,0-0.6,0.1-0.9c0.2-0.4,0.5-0.9,1-1.4			C97.7,44,97.9,43.7,97.9,43.7z"/>		<path id="XMLID_110_" class="st4" d="M102.8,41.4c-0.2,0-0.5,0.1-0.8,0.3c-0.3,0.2-0.6,0.2-0.8,0.2c-0.2,0-0.3-0.1-0.3-0.3			c-0.1-0.1-0.1-0.3,0-0.5c0.1-0.4,0.3-0.6,0.6-0.7c0.5-0.1,1.1,0.1,1.9,0.6C103.2,41.2,103,41.4,102.8,41.4L102.8,41.4z			 M103.3,51.8c-0.2,0.3-0.5,0.4-0.9,0.3c-0.2,0-0.3-0.1-0.4-0.2c-0.1-0.1-0.2-0.2-0.2-0.4c0-0.5-0.1-1.3-0.1-2.3			c-0.1-1-0.1-1.8-0.1-2.3c0-0.7,0.1-1.2,0.3-1.5c0.2-0.2,0.4-0.3,0.7-0.2c0.3,0,0.5,0.2,0.5,0.4c0.1,0.4,0.2,1.1,0.3,2.1			c0.1,0.9,0.2,1.6,0.3,2.1C103.7,50.7,103.6,51.4,103.3,51.8z"/>		<path id="XMLID_108_" class="st4" d="M106.5,43.7c0,0,0.2,0,0.6-0.1c0.3-0.1,0.6,0,0.9,0.1c0.3,0.1,0.5,0.4,0.5,0.6			c-0.5,0.2-1,0.4-1.4,0.8c-0.4,0.3-0.8,0.7-1,1.2c-0.2,0.3-0.2,0.6-0.1,0.8c0.1,0.1,0.2,0.3,0.4,0.4c0.7,0.5,1.3,0.9,1.7,1.2			c0.2,0.2,0.4,0.2,0.5,0.2c0.1,0,0.3,0,0.4-0.1c0.1-0.1,0.2-0.2,0.4-0.3c0.2-0.2,0.3-0.3,0.4-0.3c0.1-0.1,0.3-0.1,0.4-0.1			c0.1,0.2,0,0.5-0.3,0.7l-0.8,0.5c-0.2,0.2-0.5,0.4-0.8,0.8c-0.3,0.4-0.6,0.7-0.7,0.8c-0.4,0.4-0.9,0.7-1.5,0.8			c-0.3,0.1-0.5,0.1-0.8,0c-0.3-0.1-0.5-0.3-0.5-0.5c0.8-0.2,1.5-0.6,2.2-1.1c0.2-0.1,0.3-0.3,0.3-0.6c0-0.2-0.1-0.4-0.2-0.6			c-0.2-0.2-0.6-0.5-1.1-0.7c-0.6-0.2-0.9-0.5-1.1-0.7c-0.2-0.2-0.3-0.5-0.3-0.8c0-0.3,0-0.6,0.1-0.9c0.2-0.4,0.5-0.9,1-1.4			C106.2,44,106.5,43.7,106.5,43.7z"/>		<path id="XMLID_106_" class="st4" d="M112.7,47.2c-0.1,1-0.1,1.8,0,2.3c0.1,0.9,0.4,1.6,0.8,2.1c0.3-0.2,0.6-0.4,1-0.4			c0.4-0.1,0.7,0,1.1,0.1c-0.6,0.5-1.2,0.9-1.8,1c-0.4,0-0.7,0-1.1-0.1c-0.4-0.1-0.7-0.3-0.9-0.6c-0.5-0.5-0.7-1.3-0.8-2.5			c0-0.6,0-1.1,0-1.7c0-0.4,0-0.7,0-0.9c-0.1-0.3-0.2-0.6-0.4-0.8c0,0-0.2-0.1-0.8-0.3c-0.2-0.1-0.3-0.1-0.4-0.3			c-0.1-0.1-0.2-0.3-0.1-0.4c0.1-0.2,0.2-0.3,0.4-0.4c0.1-0.1,0.3-0.1,0.6-0.2c0.3,0,0.5-0.1,0.6-0.2c0.2-0.1,0.3-0.3,0.3-0.5			c0-0.2,0-0.4,0-0.7c0-0.3,0-0.6,0-0.7c0-0.5,0-0.8,0.1-1c0.1-0.2,0.2-0.3,0.3-0.4c0.2-0.1,0.3-0.2,0.5-0.1c0.2,0,0.4,0.2,0.6,0.4			c0.1,0.2,0.2,0.5,0.2,0.7c0,0.1,0,0.4-0.1,0.7c0,0.3,0,0.5,0,0.7c0,0.3,0.2,0.5,0.4,0.7c0.2,0.2,0.4,0.3,0.6,0.2			c0.2-0.1,0.4-0.1,0.6,0c0.2,0.1,0.4,0.2,0.5,0.3c-0.2,0.3-0.5,0.6-1.1,1c-0.6,0.4-0.9,0.7-1.1,1.1			C112.7,46.6,112.7,46.8,112.7,47.2z"/>		<path id="XMLID_103_" class="st4" d="M116.8,45.8c0.5-0.7,1-1.2,1.8-1.4c0.8-0.3,1.6-0.2,2.4,0.2c0.4,0.2,0.7,0.4,0.9,0.7			c0.2,0.3,0.3,0.6,0.3,1c-1,1.5-2.3,2.7-4,3.6c0.2,0.4,0.6,0.7,1.1,0.8c0.5,0.2,1,0.2,1.5,0c0.8-0.2,1.8-0.7,2.9-1.5			c-0.2,1.1-0.6,1.8-1.1,2.1c-0.9,0.7-2,1-3.1,1c-1,0-1.9-0.5-2.6-1.5c-0.6-0.9-0.9-1.8-0.8-2.9C116.2,47.1,116.4,46.4,116.8,45.8z			 M120.4,46.8c0.2-0.3,0.1-0.6-0.1-1c-0.2-0.3-0.6-0.5-1-0.5c-0.6,0.7-0.9,1.5-0.9,2.4c0.4,0,0.7-0.1,1-0.3			c0.3-0.2,0.5-0.4,0.7-0.7L120.4,46.8z"/>		<path id="XMLID_101_" class="st4" d="M125.9,50.8c-0.2,0-0.3-0.1-0.4-0.2c-0.1-0.2-0.2-0.4-0.3-0.8c-0.2-1.4-0.4-2.8-0.4-4.2			c0.2-0.1,0.4-0.1,0.5,0.1c0.2,0.2,0.3,0.4,0.3,0.6c0,0.4,0,0.6,0,0.7c0.1,0.3,0.2,0.4,0.3,0.5c0.4-1,0.8-1.7,1.5-1.9			c0.6-0.3,1.2-0.2,1.8,0.2c0.6,0.4,1,0.9,1.1,1.6c0.1,0.6,0.1,1.3-0.2,1.9c-0.2,0.6-0.6,1.2-1.1,1.7c-0.3-0.4-0.5-0.9-0.5-1.8			c0-1-0.1-1.6-0.2-1.9c-0.1-0.2-0.2-0.4-0.4-0.5c-0.2-0.1-0.4-0.2-0.6-0.2c-0.2,0-0.5,0.2-0.7,0.6c-0.6,1.1-0.8,2.2-0.6,3.4			C126.2,50.8,126.1,50.8,125.9,50.8z"/>		<path id="XMLID_99_" class="st4" d="M134.5,52c-0.9-0.2-1.5-0.8-2-1.7c-0.5-0.9-0.5-1.8-0.3-2.7c0.3-0.9,0.9-1.8,1.7-2.5			c0.9-0.8,1.8-1.2,2.6-1.2c0.2,0.4,0.2,0.8-0.1,1.2c0,0-0.4,0.5-1.2,1.3c-0.5,0.6-0.9,1.1-1,1.5c-0.2,0.6,0,1.3,0.5,2			c0.2,0.3,0.6,0.5,1.1,0.5c0.4,0,0.9-0.1,1.3-0.3c0,0,0.4-0.2,1.1-0.7c0.4-0.3,0.8-0.5,1.2-0.5c0.2,0.3,0.2,0.6,0,1			c-0.2,0.3-0.5,0.6-0.9,0.9C136.9,51.9,135.5,52.3,134.5,52z"/>		<path id="XMLID_96_" class="st4" d="M140.8,45.8c0.5-0.7,1-1.2,1.8-1.4c0.8-0.3,1.6-0.2,2.4,0.2c0.4,0.2,0.7,0.4,0.9,0.7			c0.2,0.3,0.3,0.6,0.3,1c-1,1.5-2.3,2.7-4,3.6c0.2,0.4,0.6,0.7,1.1,0.8c0.5,0.2,1,0.2,1.5,0c0.8-0.2,1.8-0.7,2.9-1.5			c-0.2,1.1-0.6,1.8-1.1,2.1c-0.9,0.7-2,1-3.1,1c-1,0-1.9-0.5-2.6-1.5c-0.6-0.9-0.9-1.8-0.8-2.9C140.2,47.1,140.4,46.4,140.8,45.8z			 M144.4,46.8c0.2-0.3,0.1-0.6-0.1-1c-0.2-0.3-0.6-0.5-1-0.5c-0.6,0.7-0.9,1.5-0.9,2.4c0.4,0,0.7-0.1,1-0.3			c0.3-0.2,0.5-0.4,0.7-0.7L144.4,46.8z"/>		<path id="XMLID_93_" class="st4" d="M161.3,45.2c0.5,0.5,0.8,1.2,0.9,2.1c0,0,0,0.8,0.1,2.3c0,0.8,0.3,1.4,0.7,1.7			c0.2,0.1,0.2,0.3,0.2,0.6c0,0.3-0.1,0.5-0.3,0.7c-0.3,0.3-0.7,0.3-1.2,0.1c-0.6-0.2-1-0.7-1.3-1.6c0,0.1-0.2-0.8-0.5-2.5			c-0.1-0.6-0.3-1.1-0.7-1.4c-0.3-0.3-0.7-0.4-1.2-0.2c-0.3,0.1-0.5,0.4-0.7,1c-0.1,0.4-0.1,0.9-0.1,1.4c0.1,0.7,0.1,1.1,0.1,1.4			c0,0.5-0.1,0.9-0.4,1.2c-0.3,0.3-0.6,0.5-1,0.4c-0.4-0.1-0.7-0.3-0.9-0.7c-0.3-0.5-0.4-1.4-0.3-2.7c0.2-4.8,0.7-8.3,1.6-10.5			c0.4-0.1,0.6,0.2,0.8,0.8c0.1,0.5,0.1,1.1,0,1.7c-0.2,1.3-0.1,2.4,0.3,3.1c0.2,0.5,0.5,0.8,0.9,1c0.4,0.2,0.8,0.2,1.2,0			C160.2,44.5,160.8,44.6,161.3,45.2z M156,46c-0.1,0.3-0.1,0.6-0.1,0.9c0,0.4-0.1,0.7-0.1,1.1c0,0.3,0,0.6,0,0.9			c0,0.3,0,0.4,0.1,0.5c0,0.1,0.1,0.1,0.2,0c0.1-0.1,0.1-0.3,0.2-0.5c0.1-0.3,0.1-0.6,0.1-0.9c0-0.4,0.1-0.7,0.1-1			c0-0.3,0-0.7,0-0.9c0-0.3,0-0.4-0.1-0.5c0-0.1-0.1-0.1-0.2,0C156.1,45.6,156.1,45.7,156,46z"/>		<path id="XMLID_91_" class="st4" d="M163.3,46.8c0-0.4,0.1-0.7,0.2-0.9c0.1-0.1,0.2-0.2,0.3-0.3c0.2-0.1,0.3,0,0.4,0			c0.1,0.1,0.2,0.3,0.3,0.6c0.4,1.2,0.7,2.2,0.9,3.1c0,0.1,0.1,0.3,0.3,0.3c0.1,0.1,0.3,0.1,0.4,0c0.2-0.1,0.4-0.3,0.7-0.6			c0.7-1,1.3-2,1.6-3.2c0.1-0.5,0.3-0.8,0.6-0.9c0.2-0.1,0.4,0,0.6,0.3c0.1,0.2,0.3,0.4,0.3,0.7c0.5,1.9,1,3.9,1.4,5.8			c0.1,0.4,0.1,0.6-0.1,0.8c-0.1,0.1-0.2,0.2-0.4,0.2c-0.1,0-0.3,0-0.4-0.1c-0.2-0.1-0.3-0.4-0.5-0.7c-0.2-0.3-0.4-0.8-0.8-1.5			c-0.2-0.7-0.4-1.3-0.5-1.6c-0.5,0.8-0.9,1.3-1.2,1.7c-0.4,0.5-0.9,0.8-1.4,0.8c-0.4,0-0.8-0.1-1.2-0.5c-0.3-0.3-0.6-0.6-0.8-1.1			C163.6,48.8,163.3,47.8,163.3,46.8z"/>		<path id="XMLID_89_" class="st4" d="M172.8,50.8c-0.2,0-0.3-0.1-0.4-0.2c-0.1-0.2-0.2-0.4-0.3-0.8c-0.2-1.4-0.4-2.8-0.4-4.2			c0.2-0.1,0.4-0.1,0.5,0.1c0.2,0.2,0.3,0.4,0.3,0.6c0,0.4,0,0.6,0,0.7c0.1,0.3,0.2,0.4,0.3,0.5c0.4-1,0.8-1.7,1.5-1.9			c0.6-0.3,1.2-0.2,1.8,0.2c0.6,0.4,1,0.9,1.1,1.6c0.1,0.6,0.1,1.3-0.2,1.9c-0.2,0.6-0.6,1.2-1.1,1.7c-0.3-0.4-0.5-0.9-0.5-1.8			c0-1-0.1-1.6-0.2-1.9c-0.1-0.2-0.2-0.4-0.4-0.5c-0.2-0.1-0.4-0.2-0.6-0.2c-0.2,0-0.5,0.2-0.7,0.6c-0.6,1.1-0.8,2.2-0.6,3.4			C173.1,50.8,172.9,50.8,172.8,50.8z"/>		<path id="XMLID_87_" class="st4" d="M182,47.2c-0.1,1-0.1,1.8,0,2.3c0.1,0.9,0.4,1.6,0.8,2.1c0.3-0.2,0.6-0.4,1-0.4			c0.4-0.1,0.7,0,1.1,0.1c-0.6,0.5-1.2,0.9-1.8,1c-0.4,0-0.7,0-1.1-0.1c-0.4-0.1-0.7-0.3-0.9-0.6c-0.5-0.5-0.7-1.3-0.8-2.5			c0-0.6,0-1.1,0-1.7c0-0.4,0-0.7,0-0.9c-0.1-0.3-0.2-0.6-0.4-0.8c0,0-0.2-0.1-0.8-0.3c-0.2-0.1-0.3-0.1-0.4-0.3			c-0.1-0.1-0.2-0.3-0.1-0.4c0.1-0.2,0.2-0.3,0.4-0.4c0.1-0.1,0.3-0.1,0.6-0.2c0.3,0,0.5-0.1,0.6-0.2c0.2-0.1,0.3-0.3,0.3-0.5			c0-0.2,0-0.4,0-0.7c0-0.3,0-0.6,0-0.7c0-0.5,0-0.8,0.1-1c0.1-0.2,0.2-0.3,0.3-0.4c0.2-0.1,0.3-0.2,0.5-0.1c0.2,0,0.4,0.2,0.6,0.4			c0.1,0.2,0.2,0.5,0.2,0.7c0,0.1,0,0.4-0.1,0.7c0,0.3,0,0.5,0,0.7c0,0.3,0.2,0.5,0.4,0.7c0.2,0.2,0.4,0.3,0.6,0.2			c0.2-0.1,0.4-0.1,0.6,0c0.2,0.1,0.4,0.2,0.5,0.3c-0.2,0.3-0.5,0.6-1.1,1c-0.6,0.4-0.9,0.7-1.1,1.1C182,46.6,182,46.8,182,47.2z"/>		<path id="XMLID_84_" class="st4" d="M187,41.4c-0.2,0-0.5,0.1-0.8,0.3c-0.3,0.2-0.6,0.2-0.8,0.2c-0.2,0-0.3-0.1-0.3-0.3			c-0.1-0.1-0.1-0.3,0-0.5c0.1-0.4,0.3-0.6,0.6-0.7c0.5-0.1,1.1,0.1,1.9,0.6C187.4,41.2,187.2,41.4,187,41.4L187,41.4z M187.5,51.8			c-0.2,0.3-0.5,0.4-0.9,0.3c-0.2,0-0.3-0.1-0.4-0.2c-0.1-0.1-0.2-0.2-0.2-0.4c0-0.5-0.1-1.3-0.1-2.3c-0.1-1-0.1-1.8-0.1-2.3			c0-0.7,0.1-1.2,0.3-1.5c0.2-0.2,0.4-0.3,0.7-0.2c0.3,0,0.5,0.2,0.5,0.4c0.1,0.4,0.2,1.1,0.3,2.1c0.1,0.9,0.2,1.6,0.3,2.1			C187.9,50.7,187.8,51.4,187.5,51.8z"/>		<path id="XMLID_82_" class="st4" d="M190,50.8c-0.2,0-0.3-0.1-0.4-0.2c-0.1-0.2-0.2-0.4-0.3-0.8c-0.2-1.4-0.4-2.8-0.4-4.2			c0.2-0.1,0.4-0.1,0.5,0.1c0.2,0.2,0.3,0.4,0.3,0.6c0,0.4,0,0.6,0,0.7c0.1,0.3,0.2,0.4,0.3,0.5c0.4-1,0.8-1.7,1.5-1.9			c0.6-0.3,1.2-0.2,1.8,0.2c0.6,0.4,1,0.9,1.1,1.6c0.1,0.6,0.1,1.3-0.2,1.9c-0.2,0.6-0.6,1.2-1.1,1.7c-0.3-0.4-0.5-0.9-0.5-1.8			c0-1-0.1-1.6-0.2-1.9c-0.1-0.2-0.2-0.4-0.4-0.5c-0.2-0.1-0.4-0.2-0.6-0.2c-0.2,0-0.5,0.2-0.7,0.6c-0.6,1.1-0.8,2.2-0.6,3.4			C190.3,50.8,190.2,50.8,190,50.8z"/>		<path id="XMLID_79_" class="st4" d="M203.4,53.4c0,1,0,1.8-0.1,2.4c-0.2,0.9-0.6,1.5-1.1,1.9c-0.3,0.2-0.8,0.4-1.3,0.5			c-0.6,0.1-1.2,0.2-1.7,0c-0.6-0.1-1-0.4-1.3-0.9c-0.4-0.7-0.2-1.7,0.5-2.9c0.6-1,1.4-1.9,2.3-2.7c1-0.9,1.3-1.6,1-2.1l-1.4,1.2			c-0.9,0.7-1.6,1.1-2.2,1.1c-0.4,0-0.8-0.1-1.2-0.4c-0.3-0.3-0.6-0.6-0.8-1c-0.3-0.6-0.4-1.5-0.3-2.5c0.1-1.2,0.4-2.3,0.9-3			c0.3-0.5,0.7-0.9,1.1-1.2c0.5-0.3,1-0.5,1.5-0.5c0.5,0,1,0.1,1.5,0.4c0.5,0.3,0.7,0.7,0.8,1.3c0,0.2,0,0.4-0.1,0.6			c-0.1,0.2-0.2,0.4-0.4,0.5c-0.2,0.1-0.4,0.1-0.6,0c-0.2-0.1-0.3-0.3-0.2-0.5c0.1-0.3,0-0.6-0.3-0.9c-0.3-0.3-0.7-0.3-1-0.2			c-0.6,0.2-1.1,0.8-1.4,1.7c-0.5,1.3-0.5,2.6-0.2,3.9c0.1,0.3,0.2,0.5,0.4,0.6c0.1,0.1,0.3,0.1,0.5,0c0.8-0.2,1.4-0.5,2.1-1.1			c0.6-0.6,1-1.2,1.3-1.9c0.2-0.4,0.3-0.8,0.4-1c0.2-0.3,0.5-0.5,0.8-0.4c0.3,0.1,0.4,0.2,0.5,0.6c0,0.2,0.1,0.5,0.1,0.9			c0,0.3,0.1,0.6,0.3,0.8c0.2,0.3,0.5,0.3,0.7,0.1c0.8-0.7,1.5-1.1,2-1.4c0.8-0.4,1.6-0.5,2.2-0.3c-0.4,0.2-1.1,0.6-1.9,1.1			c-0.8,0.5-1.5,0.9-1.9,1.1C203.8,49.9,203.3,51.2,203.4,53.4z M200,54.5c-0.3,0.6-0.6,1-0.8,1.3c-0.2,0.3-0.3,0.5-0.3,0.7			c0,0.3,0,0.5,0.3,0.8c0.5,0,0.9-0.1,1.3-0.4c0.4-0.3,0.7-0.7,0.9-1.2c0.2-0.6,0.3-1.6,0.2-2.8c-0.1-0.1-0.2-0.2-0.4-0.1			c-0.2,0.1-0.3,0.2-0.4,0.4C200.7,53.4,200.4,53.9,200,54.5z"/>	</g></g></svg>
